<?xml version="1.0" encoding="UTF-8"?>
<svg xmlns="http://www.w3.org/2000/svg" xmlns:xlink="http://www.w3.org/1999/xlink" width="83.842" height="86" viewBox="0 0 83.842 86">
  <defs>
    <clipPath id="clip-path">
      <path id="Path_126" data-name="Path 126" d="M260.042,117.013a21.681,21.681,0,1,1,0-20.743l21.8-3.113a43,43,0,1,0-.017,27.016Z" transform="translate(-198 -63.64)"></path>
    </clipPath>
  </defs>
  <g id="CyberOps_Logo" data-name="CyberOps Logo" transform="translate(-198 -63.64)">
    <g id="Group_4" data-name="Group 4" transform="translate(198 63.64)">
      <g id="Group_3" data-name="Group 3" transform="translate(0 0)">
        <g id="Group_2" data-name="Group 2" clip-path="url(#clip-path)">
          <path id="Path_1" data-name="Path 1" d="M116,303.362q3.415-.019,6.832-.042a7.322,7.322,0,0,0,2.574-.114c.727-.3,1.242-1.119,1.842-1.72q3.649-3.646,7.289-7.3a1.323,1.323,0,0,1,1.029-.438c2.9.017,5.8,0,8.7.027a1.537,1.537,0,0,1,.961.4c1.345,1.292,2.656,2.616,3.963,3.948a1.208,1.208,0,0,0,.972.413c1.159-.027,2.321.011,3.48-.025a1.3,1.3,0,0,0,.8-.333c1.368-1.328,2.694-2.7,4.066-4.02a1.522,1.522,0,0,1,.908-.384c.993-.048,1.988,0,2.983-.032a1.013,1.013,0,0,0,.613-.28,1.012,1.012,0,1,1,1.524,1.328,1.039,1.039,0,0,1-1.537-.105,1.688,1.688,0,0,0-.561-.268.542.542,0,0,0-.185,0,8.45,8.45,0,0,0-3.012.095c-.887.373-1.513,1.366-2.249,2.093-.765.757-1.511,1.537-2.3,2.272a1.23,1.23,0,0,1-.753.314c-1.387.03-2.776.034-4.163,0a1.3,1.3,0,0,1-.8-.354q-2.027-1.97-4-4a1.3,1.3,0,0,0-1.024-.434q-4.041.028-8.079,0a1.316,1.316,0,0,0-1.033.422c-2.89,2.911-5.8,5.8-8.686,8.716a1.386,1.386,0,0,1-1.088.449c-3.025-.019-6.05-.008-9.074-.008C116,303.777,116,303.568,116,303.362Z" transform="translate(-133.284 -244.711)" fill="#6c56a4" stroke="#6c56a4" stroke-miterlimit="10" stroke-width="2"></path>
          <path id="Path_2" data-name="Path 2" d="M478.1-65.118q0,13.823-.008,27.649a1.989,1.989,0,0,0,.658,1.558c2.814,2.78,5.594,5.594,8.408,8.374a1.64,1.64,0,0,1,.527,1.3c-.023,2.61-.011,5.219-.011,7.829v.771c1.126,0,2.213.008,3.3-.013.124,0,.255-.173.363-.282a1.014,1.014,0,0,1,1.488-.086,1,1,0,0,1-.008,1.444,1.023,1.023,0,0,1-1.492-.093,1.109,1.109,0,0,0-.67-.293c-.972-.032-1.948-.046-2.919,0-.594.027-.738-.2-.734-.757.021-2.776,0-5.55.021-8.326a1.45,1.45,0,0,0-.468-1.14q-4.366-4.332-8.695-8.7a1.423,1.423,0,0,1-.4-.9q-.032-13.981-.017-27.961c0-.124.019-.247.03-.371C477.689-65.118,477.9-65.118,478.1-65.118Z" transform="translate(-418.545 37.979)" fill="#6c56a4" stroke="#6c56a4" stroke-miterlimit="10" stroke-width="2"></path>
          <path id="Path_3" data-name="Path 3" d="M116,328.479c3,0,6.009.017,9.013-.006a1.262,1.262,0,0,0,.782-.375q4.347-4.309,8.659-8.659a1.658,1.658,0,0,1,1.307-.529c2.839.021,5.676,0,8.516.027a1.45,1.45,0,0,1,.911.369c1.416,1.368,2.787,2.78,4.195,4.155a1.367,1.367,0,0,1,.432,1.094q-.025,3.759.006,7.521a1.316,1.316,0,0,0,.331.771,1.054,1.054,0,0,1,.04,1.454,1.023,1.023,0,0,1-1.448,0,1.035,1.035,0,0,1,.044-1.452,1.339,1.339,0,0,0,.339-.776q.038-3.668,0-7.335a1.468,1.468,0,0,0-.369-.913c-1.263-1.313-2.557-2.6-3.866-3.87a1.284,1.284,0,0,0-.8-.339q-4.164-.038-8.33,0a1.451,1.451,0,0,0-.9.4q-4.354,4.3-8.663,8.655a1.453,1.453,0,0,1-1.134.491c-2.818-.021-5.636-.008-8.455-.013-.2,0-.409-.032-.615-.051C116,328.893,116,328.686,116,328.479Z" transform="translate(-133.276 -265.103)" fill="#6c56a4" stroke="#6c56a4" stroke-miterlimit="10" stroke-width="2"></path>
          <path id="Path_4" data-name="Path 4" d="M464.213,393.955c0-2.443.021-4.886,0-7.331a1.2,1.2,0,0,0-.369-.725q-4.354-4.389-8.739-8.745a1.392,1.392,0,0,1-.453-1.088q.025-4.287,0-8.573a1.312,1.312,0,0,1,.413-1.039c1.406-1.376,2.774-2.791,4.19-4.155a1.627,1.627,0,0,1,.963-.394c.951-.053,1.905,0,2.856-.034a1.246,1.246,0,0,0,.721-.312,1.05,1.05,0,0,1,1.5-.034,1,1,0,0,1-.011,1.4,1.025,1.025,0,0,1-1.492-.051,1.131,1.131,0,0,0-.662-.31,8.159,8.159,0,0,0-3.073.078c-.889.356-1.532,1.334-2.27,2.053-.7.679-1.4,1.357-2.053,2.074a1.411,1.411,0,0,0-.369.849q-.041,4.161,0,8.324a1.345,1.345,0,0,0,.365.849q4.347,4.395,8.735,8.748a1.387,1.387,0,0,1,.455,1.088c-.021,2.194-.013,4.391-.011,6.585,0,.247.034.493.051.738C464.711,393.955,464.462,393.955,464.213,393.955Z" transform="translate(-400.552 -298.501)" fill="#6c56a4" stroke="#6c56a4" stroke-miterlimit="10" stroke-width="2"></path>
          <path id="Path_5" data-name="Path 5" d="M576.686,440.171q-5.062-.009-10.126-.021c-2.795,0-5.592-.011-8.387.011a1.371,1.371,0,0,1-1.083-.46c-1.288-1.32-2.607-2.605-3.9-3.921a1.288,1.288,0,0,0-1.029-.436c-1.2.027-2.4-.006-3.6.019a1.291,1.291,0,0,1-1.031-.436q-1.666-1.714-3.387-3.379a1.237,1.237,0,0,0-.736-.3,1,1,0,0,1-1.067-1.033.982.982,0,0,1,.995-.978,1.039,1.039,0,0,1,1.018,1.1,1.086,1.086,0,0,0,.249.679q1.641,1.7,3.339,3.337a1.316,1.316,0,0,0,.8.329c1.242.034,2.485-.013,3.727.032a1.586,1.586,0,0,1,.963.394c1.357,1.3,2.669,2.662,4.02,3.975a1.283,1.283,0,0,0,.788.367c6.047.021,12.095.015,18.14.013a2.513,2.513,0,0,0,.306-.036C576.686,439.674,576.686,439.922,576.686,440.171Z" transform="translate(-469.757 -352.177)" fill="#6c56a4" stroke="#6c56a4" stroke-miterlimit="10" stroke-width="2"></path>
          <path id="Path_6" data-name="Path 6" d="M630.308,4.337c-.226-.017-.451-.051-.677-.051-2.631,0-5.261.008-7.892-.011a1.579,1.579,0,0,0-1.252.5q-4.259,4.309-8.566,8.57a3.482,3.482,0,0,1-.748.436,3.936,3.936,0,0,1-.2-.856q-.019-6.058,0-12.118a1.085,1.085,0,0,0-.377-.972.931.931,0,0,1,0-1.385.994.994,0,0,1,1.444.011A.953.953,0,0,1,612-.144a1.006,1.006,0,0,0-.363.908q.01,5.562,0,11.123v.767c.245-.228.4-.367.552-.514q4.044-4.041,8.079-8.092a1.388,1.388,0,0,1,1.086-.455c2.983.015,5.965,0,8.948,0Z" transform="translate(-523.379 -11.955)" fill="#6c56a4" stroke="#6c56a4" stroke-miterlimit="10" stroke-width="2"></path>
          <path id="Path_7" data-name="Path 7" d="M116.012,452.625c3.067,0,6.132-.013,9.2.011a1.361,1.361,0,0,1,.856.354c1.355,1.311,2.664,2.669,4.024,3.973a1.545,1.545,0,0,0,.955.407q4.1.047,8.2,0a1.458,1.458,0,0,0,.906-.371q1.992-1.919,3.914-3.906a1.443,1.443,0,0,1,1.2-.485q1.366.051,2.734,0a1.257,1.257,0,0,0,.717-.32,1.052,1.052,0,0,1,1.454-.074,1.014,1.014,0,1,1-1.425,1.442,1.534,1.534,0,0,0-.828-.358,23.328,23.328,0,0,0-2.546,0,1.449,1.449,0,0,0-.858.348c-1.37,1.324-2.694,2.7-4.068,4.018a1.547,1.547,0,0,1-.963.4c-2.879.032-5.759.008-8.638.03a1.362,1.362,0,0,1-1.081-.462c-1.288-1.32-2.61-2.605-3.9-3.923a1.307,1.307,0,0,0-1.029-.434c-2.713.019-5.428.011-8.143.008-.228,0-.453-.019-.681-.03C116.012,453.041,116.012,452.834,116.012,452.625Z" transform="translate(-133.292 -370.103)" fill="#6c56a4" stroke="#6c56a4" stroke-miterlimit="10" stroke-width="2"></path>
          <path id="Path_8" data-name="Path 8" d="M295.917,429.747c0-2.466-.015-4.93.017-7.4a1.538,1.538,0,0,1,.4-.963q4.455-4.509,8.967-8.963a1.587,1.587,0,0,1,.972-.388c1.3-.044,2.6-.019,3.942-.019v-4.1c-1.094,0-2.182-.011-3.269.013-.122,0-.249.183-.358.3a1,1,0,0,1-1.488.057,1.016,1.016,0,0,1-.006-1.4,1.047,1.047,0,0,1,1.5.042,1.233,1.233,0,0,0,.719.312c1.014.034,2.03.025,3.046.008.426-.006.594.158.59.586q-.019,2.144,0,4.287c0,.426-.167.59-.592.586-1.3-.015-2.612-.023-3.914.011a1.283,1.283,0,0,0-.8.325q-4.373,4.328-8.7,8.7a1.349,1.349,0,0,0-.339.862c-.027,2.154-.015,4.308-.017,6.463,0,.226-.023.453-.038.679C296.332,429.747,296.124,429.747,295.917,429.747Z" transform="translate(-275.275 -334.293)" fill="#6c56a4" stroke="#6c56a4" stroke-miterlimit="10" stroke-width="2"></path>
          <path id="Path_9" data-name="Path 9" d="M594.547,351.749a4.481,4.481,0,0,1-.481-.354c-1.294-1.284-2.591-2.563-3.864-3.868a1.362,1.362,0,0,0-1.081-.462c-2.774.021-5.55,0-8.324.023a1.367,1.367,0,0,1-1.083-.462c-1.288-1.317-2.586-2.626-3.914-3.9a1.593,1.593,0,0,0-.955-.4c-1.136-.048-2.279-.046-3.415,0a1.518,1.518,0,0,0-.9.382c-1.109,1.056-2.19,2.144-3.252,3.246a1.252,1.252,0,0,0-.291.736,1.009,1.009,0,1,1-.915-.938,1.226,1.226,0,0,0,.731-.31c1.161-1.123,2.281-2.289,3.448-3.4a1.506,1.506,0,0,1,.911-.375c1.324-.04,2.652-.044,3.975,0a1.579,1.579,0,0,1,.957.409c1.343,1.292,2.635,2.635,3.98,3.927a1.539,1.539,0,0,0,.953.4c2.753.032,5.508.03,8.263.008a1.572,1.572,0,0,1,1.252.5c1.315,1.347,2.669,2.652,4.009,3.973C594.547,351.169,594.547,351.458,594.547,351.749Z" transform="translate(-487.618 -283.027)" fill="#6c56a4" stroke="#6c56a4" stroke-miterlimit="10" stroke-width="2"></path>
          <path id="Path_10" data-name="Path 10" d="M116,142.25c2.962,0,5.923.006,8.885-.023a1.45,1.45,0,0,0,.9-.375c1.37-1.324,2.7-2.694,4.064-4.018a1.383,1.383,0,0,1,.856-.365q4.411-.038,8.821,0a1.377,1.377,0,0,1,.86.354c1.166,1.117,2.3,2.27,3.436,3.417a.926.926,0,0,0,.852.356.94.94,0,0,1,1.022.995,1.03,1.03,0,0,1-.995,1,1.05,1.05,0,0,1-1.024-1.033,1.492,1.492,0,0,0-.344-.839q-1.565-1.638-3.206-3.208a1.364,1.364,0,0,0-.849-.363q-4.161-.041-8.326,0a1.359,1.359,0,0,0-.843.373c-1.368,1.326-2.7,2.69-4.06,4.024a1.13,1.13,0,0,1-.679.341c-3.126.013-6.252,0-9.38-.013C116,142.663,116,142.456,116,142.25Z" transform="translate(-133.276 -121.892)" fill="#6c56a4" stroke="#6c56a4" stroke-miterlimit="10" stroke-width="2"></path>
          <path id="Path_11" data-name="Path 11" d="M500.766-65.11c-.017.226-.048.451-.051.677,0,2.673.008,5.345-.013,8.018a1.581,1.581,0,0,0,.508,1.252q4.332,4.284,8.611,8.619a1.616,1.616,0,0,1,.426,1.014c.036,2.485.021,4.972.013,7.46a1.071,1.071,0,0,0,.386.967.941.941,0,0,1-.03,1.429,1,1,0,0,1-1.4-.042.956.956,0,0,1,.021-1.389,1.018,1.018,0,0,0,.373-.906c-.011-2.424.008-4.848-.025-7.272a1.527,1.527,0,0,0-.4-.953q-4.322-4.385-8.695-8.714a1.454,1.454,0,0,1-.457-1.147c.013-3,0-6.009-.006-9.013Z" transform="translate(-436.359 37.972)" fill="#6c56a4" stroke="#6c56a4" stroke-miterlimit="10" stroke-width="2"></path>
          <path id="Path_12" data-name="Path 12" d="M273.941-65.118q0,9.289,0,18.581a1.1,1.1,0,0,0,.293.7q4.069,4.1,8.172,8.174a1.021,1.021,0,0,0,.637.242c.677.021,1.1.373,1.111.982a.994.994,0,0,1-1.016,1.024,1.052,1.052,0,0,1-.995-1.121,1.18,1.18,0,0,0-.312-.721c-2.711-2.738-5.445-5.453-8.151-8.2a1.442,1.442,0,0,1-.4-.9c-.023-6.111-.017-12.221-.015-18.334a3.286,3.286,0,0,1,.051-.428C273.528-65.118,273.735-65.118,273.941-65.118Z" transform="translate(-257.403 37.979)" fill="#6c56a4" stroke="#6c56a4" stroke-miterlimit="10" stroke-width="2"></path>
          <path id="Path_13" data-name="Path 13" d="M594.538,99.791c-2.98,0-5.963-.019-8.944,0a1.391,1.391,0,0,1-1.083-.455c-2.89-2.909-5.8-5.8-8.686-8.705A1.307,1.307,0,0,0,574.8,90.2c-2.422.019-4.844.013-7.268,0a.939.939,0,0,0-.852.35.961.961,0,0,1-1.431.019,1,1,0,0,1,0-1.4.941.941,0,0,1,1.427.011.987.987,0,0,0,.911.36c2.506-.006,5.01-.017,7.515.017a1.524,1.524,0,0,1,.963.4c2.932,2.894,5.834,5.818,8.76,8.718a1.287,1.287,0,0,0,.776.4c2.9.027,5.8.017,8.695.015a1.381,1.381,0,0,0,.24-.046C594.538,99.294,594.538,99.543,594.538,99.791Z" transform="translate(-487.61 -83.538)" fill="#6c56a4" stroke="#6c56a4" stroke-miterlimit="10" stroke-width="2"></path>
          <path id="Path_14" data-name="Path 14" d="M116.012,369.159c1.014-.017,2.026-.044,3.04-.048,1.969-.008,3.937.011,5.9-.017a1.291,1.291,0,0,0,.8-.335c1.368-1.328,2.694-2.7,4.066-4.02a1.575,1.575,0,0,1,.959-.4c1.284-.046,2.567-.019,3.853-.019.835,0,.843,0,.845.822q0,3.728,0,7.458a1.009,1.009,0,0,0,.352.919.944.944,0,0,1,0,1.429,1,1,0,0,1-1.4-.013,1.044,1.044,0,0,1,.013-1.454,1.151,1.151,0,0,0,.337-.651c.023-2.485.015-4.972.013-7.458,0-.1-.021-.2-.04-.384-1.366,0-2.73-.015-4.089.017-.186,0-.388.213-.542.367-1.338,1.326-2.656,2.677-4.015,3.982a1.537,1.537,0,0,1-.961.4c-3.046.032-6.092.023-9.135.025C116.012,369.575,116.012,369.366,116.012,369.159Z" transform="translate(-133.292 -300.935)" fill="#6c56a4" stroke="#6c56a4" stroke-miterlimit="10" stroke-width="2"></path>
          <path id="Path_15" data-name="Path 15" d="M251.132-65.118c.017.268.048.535.048.8q0,8.764-.008,17.527a1.441,1.441,0,0,0,.478,1.134q3.952,3.914,7.871,7.864a1.021,1.021,0,0,0,.9.386.948.948,0,0,1,1.01.955,1.031,1.031,0,0,1-1.022,1.035.934.934,0,0,1-.967-.989,1.082,1.082,0,0,0-.422-.953c-2.673-2.66-5.331-5.335-8.01-7.987a1.521,1.521,0,0,1-.5-1.191c.015-6.195,0-12.39,0-18.585C250.716-65.118,250.925-65.118,251.132-65.118Z" transform="translate(-239.442 37.979)" fill="#6c56a4" stroke="#6c56a4" stroke-miterlimit="10" stroke-width="2"></path>
          <path id="Path_16" data-name="Path 16" d="M116.02,414.667c.908.017,1.819.046,2.728.051,1.99.008,3.98-.013,5.967.011a1.552,1.552,0,0,0,1.252-.506c1.279-1.328,2.612-2.605,3.893-3.929.382-.394.628-.388,1.008,0q2.106,2.16,4.264,4.262c.4.386.377.637-.008,1.012q-1.764,1.707-3.47,3.476a1.219,1.219,0,0,0-.282.734,1.044,1.044,0,0,1-.978,1.079,1.01,1.01,0,1,1,.063-2.015.928.928,0,0,0,.592-.177c1.206-1.166,2.39-2.354,3.541-3.5l-4.34-4.327c-.8.809-1.665,1.695-2.542,2.569-.66.658-1.229,1.549-2.028,1.88a7.633,7.633,0,0,1-2.761.112c-2.3.011-4.6.011-6.9.015Z" transform="translate(-133.3 -336.993)" fill="#6c56a4" stroke="#6c56a4" stroke-miterlimit="10" stroke-width="2"></path>
          <path id="Path_17" data-name="Path 17" d="M116.02-14.366c3.023,0,6.043.019,9.066,0a1.2,1.2,0,0,0,.725-.365q4.363-4.332,8.695-8.695a1.454,1.454,0,0,1,1.193-.5c.805.038,1.615.008,2.422.011.447,0,.852.04,1.2-.424a.924.924,0,0,1,1.374.108,1.028,1.028,0,0,1-.042,1.36.927.927,0,0,1-1.381.021,1.071,1.071,0,0,0-1.029-.382,8.562,8.562,0,0,0-2.945.12c-.833.339-1.421,1.284-2.108,1.971-2.359,2.354-4.7,4.722-7.082,7.057a1.527,1.527,0,0,1-.965.394c-2.795.032-5.59.017-8.383.019-.247,0-.491.034-.738.051Z" transform="translate(-133.3 6.002)" fill="#6c56a4" stroke="#6c56a4" stroke-miterlimit="10" stroke-width="2"></path>
          <path id="Path_18" data-name="Path 18" d="M612.5,389.928c-1.459-1.438-2.926-2.867-4.367-4.319a1.282,1.282,0,0,0-1.029-.424c-1.117.03-2.239-.017-3.354.027a1.5,1.5,0,0,0-.906.369c-1.357,1.307-2.664,2.666-4.024,3.971a1.591,1.591,0,0,1-.963.4c-1.324.044-2.652.042-3.975,0a1.5,1.5,0,0,1-.908-.382c-1.168-1.115-2.289-2.281-3.448-3.4a1.209,1.209,0,0,0-.729-.3,1.01,1.01,0,0,1-1.077-1.027,1,1,0,0,1,1.052-.989,1.048,1.048,0,0,1,.957,1.155.879.879,0,0,0,.2.578q1.692,1.736,3.427,3.427a1.127,1.127,0,0,0,.7.289c1.22.027,2.445.032,3.666,0a1.218,1.218,0,0,0,.742-.323c1.379-1.345,2.723-2.725,4.106-4.064a1.409,1.409,0,0,1,.856-.36c1.345-.038,2.694-.04,4.039,0a1.5,1.5,0,0,1,.911.379c1.239,1.191,2.441,2.422,3.659,3.634a4.841,4.841,0,0,0,.474.371C612.5,389.266,612.5,389.6,612.5,389.928Z" transform="translate(-505.573 -316.357)" fill="#6c56a4" stroke="#6c56a4" stroke-miterlimit="10" stroke-width="2"></path>
          <path id="Path_19" data-name="Path 19" d="M341.287,447.637c0-4.081.006-8.164-.017-12.244,0-.559.2-.715.725-.7,1.223.03,2.445-.008,3.668.019a1.276,1.276,0,0,0,1.027-.434c1.3-1.332,2.616-2.658,3.961-3.95a1.631,1.631,0,0,1,.967-.4c.951-.053,1.905,0,2.858-.034a1.266,1.266,0,0,0,.723-.318,1.04,1.04,0,0,1,1.452-.059,1.014,1.014,0,0,1,.019,1.448,1.06,1.06,0,0,1-1.457-.025,1.4,1.4,0,0,0-.776-.335,22.308,22.308,0,0,0-2.546,0,1.626,1.626,0,0,0-.959.392c-1.345,1.292-2.66,2.614-3.963,3.948a1.287,1.287,0,0,1-1.035.419c-1.3-.023-2.6-.008-3.994-.008v.782q0,5.375,0,10.752c0,.249-.017.5-.027.744C341.7,447.637,341.493,447.637,341.287,447.637Z" transform="translate(-311.071 -352.183)" fill="#6c56a4" stroke="#6c56a4" stroke-miterlimit="10" stroke-width="2"></path>
          <path id="Path_20" data-name="Path 20" d="M116.012,99.091c.226.017.451.051.677.051,2.694,0,5.386-.011,8.079.013a1.493,1.493,0,0,0,1.187-.506q1.926-1.982,3.916-3.906a1.39,1.39,0,0,1,.852-.358c1.263-.038,2.527,0,3.79-.032a1.306,1.306,0,0,0,.8-.327c1.136-1.09,2.247-2.207,3.341-3.337a1.084,1.084,0,0,0,.249-.677,1.048,1.048,0,0,1,1.018-1.1,1,1,0,0,1,1,.98,1.02,1.02,0,0,1-1.071,1.037,1.234,1.234,0,0,0-.734.293c-1.117,1.079-2.222,2.173-3.3,3.292a1.521,1.521,0,0,1-1.244.531c-1.18-.038-2.363-.038-3.541.006a1.494,1.494,0,0,0-.906.382q-1.992,1.919-3.916,3.906a1.5,1.5,0,0,1-1.191.5c-3-.017-6.007,0-9.011,0C116.012,99.588,116.012,99.34,116.012,99.091Z" transform="translate(-133.292 -83.583)" fill="#6c56a4" stroke="#6c56a4" stroke-miterlimit="10" stroke-width="2"></path>
          <path id="Path_21" data-name="Path 21" d="M414.692-65.11a4.78,4.78,0,0,1-.432.582c-1.311,1.326-2.643,2.631-3.94,3.971a1.409,1.409,0,0,0-.369.847c-.042,1.178-.04,2.361,0,3.541a1.408,1.408,0,0,0,.363.852c1.311,1.353,2.669,2.662,3.975,4.02a1.552,1.552,0,0,1,.392.963c.032,2.548.008,5.1.032,7.643a1.187,1.187,0,0,0,.32.715,1.034,1.034,0,0,1,.042,1.5,1.027,1.027,0,0,1-1.406,0,1.025,1.025,0,0,1,.042-1.494,1.193,1.193,0,0,0,.32-.719q.035-3.728,0-7.458a1.279,1.279,0,0,0-.339-.8c-1.328-1.366-2.7-2.692-4.02-4.064a1.574,1.574,0,0,1-.4-.959q-.07-1.954,0-3.914a1.592,1.592,0,0,1,.394-.965c1.233-1.286,2.508-2.529,3.765-3.792.143-.143.261-.31.392-.466C414.113-65.11,414.4-65.11,414.692-65.11Z" transform="translate(-364.709 37.972)" fill="#6c56a4" stroke="#6c56a4" stroke-miterlimit="10" stroke-width="2"></path>
          <path id="Path_22" data-name="Path 22" d="M612.5,206.617c-1.254,1.227-2.536,2.428-3.748,3.7a2.15,2.15,0,0,1-1.834.767,31.1,31.1,0,0,0-3.227,0,1.4,1.4,0,0,0-.854.358c-1.353,1.311-2.66,2.669-4.015,3.973a1.544,1.544,0,0,1-.959.4c-2.525.032-5.05.021-7.576.015a.908.908,0,0,0-.849.348.95.95,0,0,1-1.429.046,1.013,1.013,0,1,1,1.467-1.4,1.306,1.306,0,0,0,.771.337q3.7.038,7.39,0a1.379,1.379,0,0,0,.852-.36q2.03-1.963,4-3.99a1.355,1.355,0,0,1,1.092-.441c1.22.025,2.443.03,3.663-.006a1.31,1.31,0,0,0,.8-.335c1.5-1.452,2.976-2.934,4.46-4.405C612.5,205.955,612.5,206.286,612.5,206.617Z" transform="translate(-505.569 -175.693)" fill="#6c56a4" stroke="#6c56a4" stroke-miterlimit="10" stroke-width="2"></path>
          <path id="Path_23" data-name="Path 23" d="M594.546,158.265c-.268.011-.537.03-.805.03q-13.074,0-26.146,0a1.006,1.006,0,0,0-.908.363.937.937,0,0,1-1.427.017,1,1,0,0,1-.008-1.4.955.955,0,0,1,1.431.011,1,1,0,0,0,.908.36q13.475,0,26.953,0C594.546,157.85,594.546,158.056,594.546,158.265Z" transform="translate(-487.617 -137.285)" fill="#6c56a4" stroke="#6c56a4" stroke-miterlimit="10" stroke-width="2"></path>
          <path id="Path_24" data-name="Path 24" d="M116.012,205.615c3.1,0,6.212-.015,9.317,0a1.206,1.206,0,0,1,.736.341c1.364,1.33,2.692,2.7,4.062,4.02a1.46,1.46,0,0,0,.906.373q3.664.044,7.329,0a1.458,1.458,0,0,0,.83-.35,1.043,1.043,0,0,1,1.452.011,1.02,1.02,0,0,1-.008,1.4,1.043,1.043,0,0,1-1.452-.006,1.473,1.473,0,0,0-.833-.344q-3.728-.038-7.453-.006a1.431,1.431,0,0,1-1.145-.466q-1.944-2.008-3.956-3.948a1.447,1.447,0,0,0-.9-.377c-2.959-.034-5.921-.03-8.882-.036C116.012,206.028,116.012,205.821,116.012,205.615Z" transform="translate(-133.292 -175.683)" fill="#6c56a4" stroke="#6c56a4" stroke-miterlimit="10" stroke-width="2"></path>
          <path id="Path_25" data-name="Path 25" d="M116.012,162.412c2.028.013,4.055.03,6.083.04.953,0,1.908.027,2.856-.019a1.414,1.414,0,0,0,.852-.363c1.353-1.311,2.662-2.669,4.02-3.975a1.554,1.554,0,0,1,.961-.4c2.546-.032,5.095-.008,7.641-.032a1.2,1.2,0,0,0,.721-.314,1.043,1.043,0,0,1,1.5-.042,1.012,1.012,0,1,1-1.5,1.357,1.21,1.21,0,0,0-.721-.316c-2.464-.023-4.928-.027-7.392,0a1.467,1.467,0,0,0-.9.386q-1.989,1.919-3.914,3.906a1.51,1.51,0,0,1-1.193.5c-3-.015-6.005,0-9.007.011C116.012,162.91,116.012,162.661,116.012,162.412Z" transform="translate(-133.292 -137.331)" fill="#6c56a4" stroke="#6c56a4" stroke-miterlimit="10" stroke-width="2"></path>
          <path id="Path_26" data-name="Path 26" d="M348.986-65.118a3.642,3.642,0,0,1-.379.54c-1.326,1.338-2.671,2.658-3.978,4.013a1.457,1.457,0,0,0-.375.9c-.027,2.816,0,5.632-.034,8.446a1.562,1.562,0,0,1-.4.963c-1.128,1.185-2.308,2.319-3.446,3.493a1.08,1.08,0,0,0-.245.677,1.046,1.046,0,0,1-1.018,1.1,1.011,1.011,0,0,1-1.008-.976A1.032,1.032,0,0,1,339.181-47a1.246,1.246,0,0,0,.736-.293c1.1-1.062,2.19-2.142,3.246-3.252a1.455,1.455,0,0,0,.375-.9c.027-2.816,0-5.632.034-8.446a1.551,1.551,0,0,1,.4-.965c1.216-1.271,2.477-2.5,3.718-3.748.156-.158.287-.341.43-.514C348.4-65.118,348.7-65.118,348.986-65.118Z" transform="translate(-308.575 37.979)" fill="#6c56a4" stroke="#6c56a4" stroke-miterlimit="10" stroke-width="2"></path>
          <path id="Path_27" data-name="Path 27" d="M630.372,279.012c-1.484-1.473-2.959-2.957-4.462-4.412a1.282,1.282,0,0,0-.8-.337q-4.164-.035-8.328,0a1.289,1.289,0,0,0-.809.316c-1.136,1.09-2.245,2.207-3.339,3.339a1.146,1.146,0,0,0-.261.687,1.027,1.027,0,0,1-1.02,1.09,1.007,1.007,0,0,1-.989-1.056,1.041,1.041,0,0,1,1.149-.961.972.972,0,0,0,.62-.245c1.187-1.157,2.34-2.348,3.535-3.5a1.374,1.374,0,0,1,.856-.356q4.414-.038,8.826,0a1.378,1.378,0,0,1,.854.36c1.406,1.341,2.782,2.713,4.169,4.077Z" transform="translate(-523.444 -229.313)" fill="#6c56a4" stroke="#6c56a4" stroke-miterlimit="10" stroke-width="2"></path>
          <path id="Path_28" data-name="Path 28" d="M437.545-65.11c-.818.847-1.631,1.7-2.456,2.542-.666.681-1.366,1.33-2.007,2.034a1.446,1.446,0,0,0-.36.849c-.04,1.157-.04,2.319,0,3.478a1.411,1.411,0,0,0,.35.854c1.324,1.368,2.7,2.692,4.015,4.064a1.63,1.63,0,0,1,.4.965c.053.949,0,1.905.034,2.856a1.268,1.268,0,0,0,.316.727,1.037,1.037,0,0,1,.013,1.494,1.006,1.006,0,0,1-1.4-.025,1.048,1.048,0,0,1,.07-1.494,1.141,1.141,0,0,0,.291-.672,8.417,8.417,0,0,0-.093-3.132c-.356-.887-1.362-1.513-2.087-2.249s-1.482-1.448-2.184-2.207a1.433,1.433,0,0,1-.371-.849q-.057-2.049,0-4.1a1.4,1.4,0,0,1,.36-.854c1.4-1.444,2.824-2.856,4.241-4.279C436.966-65.11,437.255-65.11,437.545-65.11Z" transform="translate(-382.712 37.972)" fill="#6c56a4" stroke="#6c56a4" stroke-miterlimit="10" stroke-width="2"></path>
          <path id="Path_29" data-name="Path 29" d="M630.37,326.675c-1.429-1.406-2.873-2.8-4.279-4.224a1.558,1.558,0,0,0-1.242-.512c-2.692.025-5.381,0-8.073.021a1.606,1.606,0,0,1-1.3-.525c-1.069-1.126-2.177-2.213-3.295-3.292a1.2,1.2,0,0,0-.725-.293,1.036,1.036,0,0,1-1.094-1.02.981.981,0,0,1,.98-.991,1,1,0,0,1,1.031,1.067,1.25,1.25,0,0,0,.3.736c1.077,1.117,2.173,2.22,3.295,3.29a1.366,1.366,0,0,0,.86.341q4.193.038,8.383,0a1.424,1.424,0,0,1,1.136.481c1.168,1.2,2.363,2.38,3.552,3.56a4.452,4.452,0,0,0,.474.36C630.37,326.014,630.37,326.344,630.37,326.675Z" transform="translate(-523.441 -262.679)" fill="#6c56a4" stroke="#6c56a4" stroke-miterlimit="10" stroke-width="2"></path>
          <path id="Path_30" data-name="Path 30" d="M630.37,183.392c-2.983-.006-5.967-.021-8.95-.008a1.12,1.12,0,0,0-.681.327q-2.02,1.979-4,4a1.277,1.277,0,0,1-1.031.436c-.953-.03-1.908-.032-2.858.006a1.263,1.263,0,0,0-.717.325,1.027,1.027,0,0,1-1.494.03,1,1,0,0,1,.013-1.4,1.029,1.029,0,0,1,1.495.053,1.123,1.123,0,0,0,.658.312,8.132,8.132,0,0,0,3.075-.072c.887-.356,1.528-1.341,2.266-2.059s1.482-1.45,2.194-2.2a1.345,1.345,0,0,1,1.086-.457c2.734.021,5.47.011,8.206.008.247,0,.5-.025.742-.038C630.37,182.895,630.37,183.143,630.37,183.392Z" transform="translate(-523.441 -157.565)" fill="#6c56a4" stroke="#6c56a4" stroke-miterlimit="10" stroke-width="2"></path>
          <path id="Path_31" data-name="Path 31" d="M666.191,415.057a4.522,4.522,0,0,1-.478-.363c-1.309-1.3-2.6-2.616-3.927-3.893a1.6,1.6,0,0,0-.959-.409c-1.216-.048-2.435-.019-3.691-.019-.019.24-.042.419-.042.6,0,2.382-.01,4.764.011,7.146a1.221,1.221,0,0,0,.31.725,1.042,1.042,0,0,1,.029,1.5.993.993,0,0,1-1.4-.011,1.042,1.042,0,0,1,.046-1.5,1.225,1.225,0,0,0,.3-.731c.021-2.527.013-5.052.015-7.58,0-.784.021-.8.8-.805,1.3,0,2.609-.027,3.914.017a1.591,1.591,0,0,1,.957.4c1.391,1.328,2.746,2.694,4.115,4.049C666.191,414.478,666.191,414.766,666.191,415.057Z" transform="translate(-559.262 -336.761)" fill="#6c56a4" stroke="#6c56a4" stroke-miterlimit="10" stroke-width="2"></path>
          <path id="Path_32" data-name="Path 32" d="M459.486,468.222c-.008-.786.017-1.575-.044-2.357a1.58,1.58,0,0,0-.382-.908c-1.309-1.355-2.666-2.662-3.973-4.02a1.6,1.6,0,0,1-.409-.959c-.046-1.3-.03-2.609-.011-3.914a3.056,3.056,0,0,1,.2-.734,2.658,2.658,0,0,1,.66.35c1.157,1.128,2.283,2.285,3.444,3.408a1.2,1.2,0,0,0,.727.3,1.03,1.03,0,0,1,1.09,1.022.98.98,0,0,1-1.043.989,1.008,1.008,0,0,1-.963-1.134.732.732,0,0,0-.114-.489c-1.046-1.083-2.11-2.148-3.307-3.358,0,1.368-.015,2.553.017,3.737,0,.167.207.344.348.487,1.343,1.353,2.7,2.688,4.026,4.058a1.427,1.427,0,0,1,.352.856c.044.887.013,1.781.011,2.671C459.9,468.222,459.7,468.222,459.486,468.222Z" transform="translate(-400.551 -372.768)" fill="#6c56a4" stroke="#6c56a4" stroke-miterlimit="10" stroke-width="2"></path>
          <path id="Path_33" data-name="Path 33" d="M326.371-65.11c-.478.512-.946,1.037-1.438,1.537-.986,1-2.007,1.979-2.97,3.006a1.553,1.553,0,0,0-.394.963c-.032,2.8-.025,5.592-.008,8.389a1.315,1.315,0,0,1-.43,1.033c-1.128,1.1-2.245,2.209-3.333,3.345a1.51,1.51,0,0,0-.346.839,1.022,1.022,0,0,1-1.024,1.022,1,1,0,0,1-.989-.993,1.029,1.029,0,0,1,1.027-1.022,1.509,1.509,0,0,0,.839-.346c1.092-1.045,2.165-2.112,3.206-3.208a1.449,1.449,0,0,0,.369-.906c.027-2.816,0-5.634.034-8.452a1.554,1.554,0,0,1,.4-.961C322.688-62.3,324.1-63.7,325.5-65.11Z" transform="translate(-290.685 37.972)" fill="#6c56a4" stroke="#6c56a4" stroke-miterlimit="10" stroke-width="2"></path>
          <path id="Path_34" data-name="Path 34" d="M507.186,447.638c0-2.424.015-4.848,0-7.272a1.1,1.1,0,0,0-.291-.7q-4.069-4.107-8.176-8.174a1.031,1.031,0,0,0-.637-.24c-.677-.025-1.1-.377-1.109-.986a.984.984,0,0,1,1.016-1.02,1.041,1.041,0,0,1,.995,1.119,1.18,1.18,0,0,0,.312.721c2.713,2.738,5.447,5.455,8.155,8.2a1.355,1.355,0,0,1,.392.843c.032,2.382.019,4.766.015,7.148a2.735,2.735,0,0,1-.048.367C507.6,447.638,507.393,447.638,507.186,447.638Z" transform="translate(-433.952 -352.184)" fill="#6c56a4" stroke="#6c56a4" stroke-miterlimit="10" stroke-width="2"></path>
          <path id="Path_35" data-name="Path 35" d="M484.482,447.62c-.013-2.316-.042-4.633-.027-6.95a1.586,1.586,0,0,0-.519-1.246c-2.635-2.605-5.242-5.236-7.879-7.839a1.466,1.466,0,0,0-.837-.341,1.055,1.055,0,0,1-1.031-1.027,1.013,1.013,0,1,1,2.024.091,1.189,1.189,0,0,0,.291.727q4.063,4.1,8.164,8.168a1.388,1.388,0,0,1,.445,1.088c-.019,2.443-.008,4.884-.008,7.327C484.9,447.62,484.691,447.62,484.482,447.62Z" transform="translate(-415.973 -352.166)" fill="#6c56a4" stroke="#6c56a4" stroke-miterlimit="10" stroke-width="2"></path>
          <path id="Path_36" data-name="Path 36" d="M529.871,447.62c-.017-1.716-.167-3.442-.015-5.143a4.786,4.786,0,0,0-1.79-4.346c-2.3-2.076-4.412-4.363-6.625-6.541a1.474,1.474,0,0,0-.837-.344,1.049,1.049,0,0,1-1.035-1.022,1.011,1.011,0,1,1,2.019.082,1.205,1.205,0,0,0,.293.731q4.041,4.082,8.119,8.124a1.514,1.514,0,0,1,.491,1.2c-.019,2.422,0,4.842,0,7.264Z" transform="translate(-451.788 -352.167)" fill="#6c56a4" stroke="#6c56a4" stroke-miterlimit="10" stroke-width="2"></path>
          <path id="Path_37" data-name="Path 37" d="M116.02,76.513c2.962,0,5.925.013,8.887-.015a1.45,1.45,0,0,0,.9-.375c1.284-1.235,2.519-2.519,3.8-3.758a1.3,1.3,0,0,0,.438-1.09c-.032-.641-.006-1.284-.008-1.927,0-.544.086-1.069-.468-1.5a.888.888,0,0,1,.131-1.322,1.031,1.031,0,0,1,1.406.072.928.928,0,0,1-.011,1.338,1.106,1.106,0,0,0-.4,1.079c.008.892.032,1.783-.015,2.671a1.423,1.423,0,0,1-.348.858q-2.1,2.166-4.256,4.266a1.206,1.206,0,0,1-.74.346c-3.025.023-6.05.015-9.072.013a1.635,1.635,0,0,1-.245-.038C116.02,76.926,116.02,76.72,116.02,76.513Z" transform="translate(-133.3 -65.729)" fill="#6c56a4" stroke="#6c56a4" stroke-miterlimit="10" stroke-width="2"></path>
          <path id="Path_38" data-name="Path 38" d="M434.23,447.614c.006-.849.038-1.7.006-2.546a1.131,1.131,0,0,0-.32-.681q-1.976-2.02-4-4a1.364,1.364,0,0,1-.441-1.09c.019-2.485,0-4.972.013-7.458a1,1,0,0,0-.365-.908.941.941,0,0,1-.013-1.429,1,1,0,0,1,1.4,0,1.039,1.039,0,0,1,0,1.452,1.441,1.441,0,0,0-.36.826c-.027,2.424-.006,4.848-.025,7.27a1.3,1.3,0,0,0,.438,1.027c1.332,1.3,2.656,2.616,3.948,3.961a1.675,1.675,0,0,1,.4.965c.067.864.044,1.737.057,2.605Z" transform="translate(-380.143 -352.16)" fill="#6c56a4" stroke="#6c56a4" stroke-miterlimit="10" stroke-width="2"></path>
          <path id="Path_39" data-name="Path 39" d="M116.02,232.638c1.225-1.2,2.5-2.357,3.659-3.615a2.663,2.663,0,0,1,2.373-.974,26.031,26.031,0,0,0,2.98.008,1.4,1.4,0,0,1,1.147.462q1.66,1.723,3.385,3.381a1.167,1.167,0,0,0,.725.27,1.045,1.045,0,0,1,1.077.98,1.014,1.014,0,0,1-.995,1.054.961.961,0,0,1-1-1.033.871.871,0,0,0-.346-.843c-1.06-1.05-2.1-2.123-3.179-3.147a1.61,1.61,0,0,0-.953-.409c-1.138-.048-2.279-.046-3.417,0a1.5,1.5,0,0,0-.906.371c-1.357,1.307-2.677,2.656-4.015,3.982a4.082,4.082,0,0,1-.537.386C116.02,233.22,116.02,232.929,116.02,232.638Z" transform="translate(-133.3 -193.384)" fill="#6c56a4" stroke="#6c56a4" stroke-miterlimit="10" stroke-width="2"></path>
          <path id="Path_40" data-name="Path 40" d="M116.02,44.192c.268-.013.535-.038.8-.04q8.353,0,16.7,0a.986.986,0,0,0,.913-.358.935.935,0,0,1,1.427-.021,1,1,0,0,1,.008,1.4.961.961,0,0,1-1.431-.015.944.944,0,0,0-.847-.356q-8.787.013-17.573.006C116.02,44.607,116.02,44.4,116.02,44.192Z" transform="translate(-133.3 -47.708)" fill="#6c56a4" stroke="#6c56a4" stroke-miterlimit="10" stroke-width="2"></path>
          <path id="Path_41" data-name="Path 41" d="M294.018-65.11c.013.268.038.535.038.8q0,8.353,0,16.7a.974.974,0,0,0,.356.911.935.935,0,0,1,.023,1.427,1.007,1.007,0,0,1-1.4.011.961.961,0,0,1,.011-1.431,1,1,0,0,0,.356-.913q-.006-8.755,0-17.512Z" transform="translate(-272.754 37.972)" fill="#6c56a4" stroke="#6c56a4" stroke-miterlimit="10" stroke-width="2"></path>
          <path id="Path_42" data-name="Path 42" d="M392.158-65.11c-.478.512-.946,1.037-1.438,1.537-1,1.018-2.032,2.009-3.016,3.044a1.417,1.417,0,0,0-.36.849c-.04,1.178-.036,2.361,0,3.539a1.218,1.218,0,0,0,.312.748q1.66,1.72,3.383,3.381a1.09,1.09,0,0,0,.681.228,1.04,1.04,0,0,1,1.073.98,1,1,0,0,1-.993,1.048,1.043,1.043,0,0,1-1.022-1.031,1.478,1.478,0,0,0-.348-.835c-1.117-1.166-2.283-2.285-3.4-3.448a1.3,1.3,0,0,1-.331-.8q-.051-2.049,0-4.1a1.4,1.4,0,0,1,.358-.854c1.4-1.444,2.82-2.858,4.237-4.281C391.578-65.11,391.867-65.11,392.158-65.11Z" transform="translate(-346.898 37.972)" fill="#6c56a4" stroke="#6c56a4" stroke-miterlimit="10" stroke-width="2"></path>
          <path id="Path_43" data-name="Path 43" d="M321.536-65.118a4.138,4.138,0,0,1-.411.584c-1.324,1.338-2.669,2.656-3.98,4.007a1.266,1.266,0,0,0-.333.8c-.025,2.5-.021,5.006,0,7.51a1.1,1.1,0,0,0,.3.664,1.047,1.047,0,0,1,.061,1.494,1.012,1.012,0,0,1-1.4.017,1.036,1.036,0,0,1,.021-1.494,1.336,1.336,0,0,0,.316-.786c.023-2.523,0-5.048.032-7.571a1.548,1.548,0,0,1,.4-.963c1.229-1.286,2.5-2.527,3.758-3.79a5.106,5.106,0,0,0,.377-.47C320.955-65.118,321.246-65.118,321.536-65.118Z" transform="translate(-290.699 37.979)" fill="#6c56a4" stroke="#6c56a4" stroke-miterlimit="10" stroke-width="2"></path>
          <path id="Path_44" data-name="Path 44" d="M130.079,485.766c-.011-.786.008-1.575-.048-2.359a1.468,1.468,0,0,0-.339-.862c-1.294-1.343-2.618-2.656-3.95-3.961a1.035,1.035,0,0,0-.637-.287c-3.025-.011-6.05,0-9.074.008v-.746c1.49.013,2.978.032,4.469.038,1.553.006,3.107-.017,4.658.019a1.484,1.484,0,0,1,.919.36q2.166,2.093,4.26,4.262a1.427,1.427,0,0,1,.352.856c.044.887.013,1.781.013,2.671Z" transform="translate(-133.308 -390.312)" fill="#6c56a4" stroke="#6c56a4" stroke-miterlimit="10" stroke-width="2"></path>
          <path id="Path_45" data-name="Path 45" d="M546.295-65.11c1.368,1.383,2.723,2.778,4.108,4.142a1.5,1.5,0,0,1,.493,1.193q-.035,3.759,0,7.519a1.207,1.207,0,0,0,.312.719,1.057,1.057,0,0,1,.036,1.5,1.027,1.027,0,0,1-1.406-.008,1.036,1.036,0,0,1,.053-1.494,1.214,1.214,0,0,0,.314-.725c.023-2.464.027-4.93,0-7.394a1.453,1.453,0,0,0-.388-.9c-1.294-1.341-2.628-2.643-3.942-3.967a6.079,6.079,0,0,1-.453-.578C545.713-65.11,546-65.11,546.295-65.11Z" transform="translate(-472.189 37.972)" fill="#6c56a4" stroke="#6c56a4" stroke-miterlimit="10" stroke-width="2"></path>
          <path id="Path_46" data-name="Path 46" d="M569.311-65.118a4.724,4.724,0,0,0,.365.474c1.254,1.263,2.525,2.506,3.758,3.79a1.464,1.464,0,0,1,.377.911c.029,2.544.006,5.088.032,7.632a1.315,1.315,0,0,0,.335.776,1.036,1.036,0,0,1,.013,1.5,1.025,1.025,0,0,1-1.4-.023,1.046,1.046,0,0,1,.067-1.494,1.1,1.1,0,0,0,.3-.664q.032-3.753,0-7.51a1.276,1.276,0,0,0-.337-.8c-1.326-1.366-2.683-2.7-4.022-4.051a3.107,3.107,0,0,1-.352-.542C568.731-65.118,569.02-65.118,569.311-65.118Z" transform="translate(-490.357 37.979)" fill="#6c56a4" stroke="#6c56a4" stroke-miterlimit="10" stroke-width="2"></path>
          <path id="Path_47" data-name="Path 47" d="M116.02,275.935c2.919-.008,5.837-.03,8.756-.019a1.424,1.424,0,0,0,1.134-.474c1.05-1.088,2.139-2.135,3.189-3.223a1.08,1.08,0,0,0,.245-.677,1.033,1.033,0,0,1,1.022-1.092.993.993,0,0,1,1,.974,1.035,1.035,0,0,1-1.075,1.039,1.228,1.228,0,0,0-.734.287c-1.161,1.121-2.281,2.287-3.448,3.4a1.462,1.462,0,0,1-.9.392c-3.065.027-6.128.013-9.192.013Z" transform="translate(-133.3 -226.858)" fill="#6c56a4" stroke="#6c56a4" stroke-miterlimit="10" stroke-width="2"></path>
          <path id="Path_48" data-name="Path 48" d="M116,389.287c2.983,0,5.963.011,8.946-.011a1.283,1.283,0,0,0,.8-.333q1.7-1.635,3.341-3.337a1.072,1.072,0,0,0,.24-.677,1.057,1.057,0,0,1,1.024-1.1,1,1,0,0,1,1,.984,1.014,1.014,0,0,1-1.073,1.033,1.232,1.232,0,0,0-.734.293c-1.176,1.138-2.314,2.312-3.488,3.451a1.208,1.208,0,0,1-.74.344c-3.023.023-6.045.013-9.07.011a1.631,1.631,0,0,1-.245-.036C116,389.7,116,389.5,116,389.287Z" transform="translate(-133.284 -316.339)" fill="#6c56a4" stroke="#6c56a4" stroke-miterlimit="10" stroke-width="2"></path>
          <path id="Path_49" data-name="Path 49" d="M648.284,94.989c-1.8.015-3.6.032-5.4.04-1.159.006-2.321-.019-3.478.011a1.462,1.462,0,0,1-1.2-.483c-1.09-1.134-2.207-2.243-3.339-3.337a1.237,1.237,0,0,0-.734-.3,1.023,1.023,0,0,1-1.077-1.031,1.011,1.011,0,0,1,1-.984,1.057,1.057,0,0,1,1.026,1.1,1.181,1.181,0,0,0,.285.723c1.064,1.1,2.144,2.192,3.252,3.248a1.462,1.462,0,0,0,.9.375c2.919.027,5.839.017,8.758.015C648.284,94.574,648.284,94.78,648.284,94.989Z" transform="translate(-541.355 -83.583)" fill="#6c56a4" stroke="#6c56a4" stroke-miterlimit="10" stroke-width="2"></path>
          <path id="Path_50" data-name="Path 50" d="M648.284,47.424c-2.94,0-5.881-.011-8.821.013a1.286,1.286,0,0,0-.8.331q-1.7,1.635-3.339,3.337a1.072,1.072,0,0,0-.24.677,1.057,1.057,0,0,1-1.026,1.1,1,1,0,0,1-1-.984,1.015,1.015,0,0,1,1.075-1.031,1.234,1.234,0,0,0,.734-.293c1.174-1.138,2.314-2.312,3.486-3.453a1.208,1.208,0,0,1,.74-.344c2.983-.023,5.963-.013,8.946-.011a1.629,1.629,0,0,1,.245.036Z" transform="translate(-541.355 -50.318)" fill="#6c56a4" stroke="#6c56a4" stroke-miterlimit="10" stroke-width="2"></path>
          <path id="Path_51" data-name="Path 51" d="M116.02-21.46l9.068.023c.826,0,.837.011.839.83,0,.746,0,1.49,0,2.236,0,.542-.091,1.069.462,1.5.39.3.24.991-.156,1.324a1.02,1.02,0,0,1-1.4-.1.938.938,0,0,1,.032-1.341,1.027,1.027,0,0,0,.382-.963c-.015-.906,0-1.813,0-2.755-.169-.019-.287-.044-.4-.044q-4.256,0-8.511,0a2.515,2.515,0,0,0-.306.036C116.02-20.963,116.02-21.211,116.02-21.46Z" transform="translate(-133.3 3.522)" fill="#6c56a4" stroke="#6c56a4" stroke-miterlimit="10" stroke-width="2"></path>
          <path id="Path_52" data-name="Path 52" d="M648.275,2.1c-2.919,0-5.839-.008-8.758.021a1.452,1.452,0,0,0-.9.373c-1.123,1.071-2.217,2.175-3.3,3.29a1.082,1.082,0,0,0-.245.679,1.042,1.042,0,0,1-1.02,1.1,1,1,0,0,1-1-.978,1.025,1.025,0,0,1,1.073-1.035,1.238,1.238,0,0,0,.736-.291c1.176-1.136,2.314-2.31,3.486-3.453a1.119,1.119,0,0,1,.679-.341c3.084-.013,6.168,0,9.251.015C648.275,1.684,648.275,1.891,648.275,2.1Z" transform="translate(-541.347 -14.565)" fill="#6c56a4" stroke="#6c56a4" stroke-miterlimit="10" stroke-width="2"></path>
          <path id="Path_53" data-name="Path 53" d="M388.8,465.545c.011-.868.042-1.737.015-2.6a1.049,1.049,0,0,0-.316-.622c-1.349-1.372-2.723-2.717-4.062-4.1a1.433,1.433,0,0,1-.356-.852c-.048-.8-.015-1.612-.019-2.42,0-.519.078-1.016-.46-1.427-.415-.316-.266-1.029.158-1.368a1.031,1.031,0,0,1,1.357.084.939.939,0,0,1-.021,1.385,1.016,1.016,0,0,0-.388.959c.017.826-.025,1.657.021,2.481a1.447,1.447,0,0,0,.352.854c1.324,1.368,2.694,2.69,4.011,4.062a1.645,1.645,0,0,1,.4.963c.063.864.038,1.735.048,2.6Z" transform="translate(-344.284 -370.091)" fill="#6c56a4" stroke="#6c56a4" stroke-miterlimit="10" stroke-width="2"></path>
          <path id="Path_54" data-name="Path 54" d="M411.581,465.541c-.006-.807.015-1.617-.036-2.42a1.356,1.356,0,0,0-.335-.8q-1.967-2.027-3.992-4a1.387,1.387,0,0,1-.462-1.147c.032-.744.011-1.49.008-2.236,0-.523.07-1.024-.455-1.435a.908.908,0,0,1,.139-1.326,1.018,1.018,0,0,1,1.357.036.928.928,0,0,1,.03,1.381,1.081,1.081,0,0,0-.386,1.024,6.867,6.867,0,0,1-.008,1.178,3.141,3.141,0,0,0,1.288,3.1,39.848,39.848,0,0,1,3.08,3.065,1.635,1.635,0,0,1,.392.963c.051.866.011,1.737.006,2.607C411.994,465.541,411.787,465.541,411.581,465.541Z" transform="translate(-362.217 -370.087)" fill="#6c56a4" stroke="#6c56a4" stroke-miterlimit="10" stroke-width="2"></path>
          <path id="Path_55" data-name="Path 55" d="M116.02,71.773c.784-.017,1.57-.046,2.354-.048,2.255-.006,4.511,0,6.861,0,0-1.132.006-2.22-.011-3.305,0-.112-.135-.234-.23-.327a1.006,1.006,0,1,1,1.208-.017,1.033,1.033,0,0,0-.263.624c-.027.993-.032,1.988,0,2.983.015.535-.171.723-.719.721-3.065-.019-6.132,0-9.2,0Z" transform="translate(-133.3 -65.715)" fill="#6c56a4" stroke="#6c56a4" stroke-miterlimit="10" stroke-width="2"></path>
          <path id="Path_56" data-name="Path 56" d="M634.371-65.11c.011,1.22.027,2.441.029,3.661,0,3.044-.006,6.085.015,9.129a1.318,1.318,0,0,0,.323.78,1.03,1.03,0,0,1,.04,1.494,1.02,1.02,0,0,1-1.4,0,1.047,1.047,0,0,1,.038-1.5,1.3,1.3,0,0,0,.318-.778c.021-4.264.017-8.528.019-12.792Z" transform="translate(-541.369 37.972)" fill="#6c56a4" stroke="#6c56a4" stroke-miterlimit="10" stroke-width="2"></path>
          <path id="Path_57" data-name="Path 57" d="M212.238,501.35v-2.683c-.245-.013-.426-.032-.607-.032-2.359,0-4.717-.013-7.076.013a1.316,1.316,0,0,0-.774.331,1.032,1.032,0,0,1-1.494.023,1.02,1.02,0,0,1,.017-1.4,1.03,1.03,0,0,1,1.492.057,1.186,1.186,0,0,0,.717.31q3.848.035,7.7,0c.548,0,.736.179.708.715-.044.885-.042,1.775-.059,2.662C212.653,501.35,212.444,501.35,212.238,501.35Z" transform="translate(-201.169 -405.897)" fill="#6c56a4" stroke="#6c56a4" stroke-miterlimit="10" stroke-width="2"></path>
          <path id="Path_58" data-name="Path 58" d="M683.986,304.006c-1.568-1.564-3.143-3.12-4.7-4.7a1.15,1.15,0,0,1-.274-.7c-.034-.826-.013-1.655-.015-2.483,0-.521.065-1.016-.457-1.429a.913.913,0,0,1,.154-1.368,1.01,1.01,0,0,1,1.355.084.938.938,0,0,1-.015,1.385,1.033,1.033,0,0,0-.39.957c.017.847-.006,1.7.013,2.546a.967.967,0,0,0,.186.615c1.368,1.381,2.757,2.738,4.14,4.1Z" transform="translate(-577.057 -244.733)" fill="#6c56a4" stroke="#6c56a4" stroke-miterlimit="10" stroke-width="2"></path>
          <path id="Path_59" data-name="Path 59" d="M666.18,72.395c-1.429,0-2.858.013-4.285-.025a1.4,1.4,0,0,1-.854-.354c-1.18-1.132-2.317-2.31-3.493-3.446a1.2,1.2,0,0,0-.727-.282,1.046,1.046,0,0,1-1.086-.968.991.991,0,0,1,.989-1.05,1.014,1.014,0,0,1,1.027,1.016,1.494,1.494,0,0,0,.346.839c1.043,1.092,2.11,2.165,3.206,3.206a1.516,1.516,0,0,0,.911.373c1.322.057,2.645.051,3.967.07Z" transform="translate(-559.251 -65.715)" fill="#6c56a4" stroke="#6c56a4" stroke-miterlimit="10" stroke-width="2"></path>
          <path id="Path_60" data-name="Path 60" d="M684.085,438c-1.25-1.233-2.5-2.462-3.75-3.7a4.45,4.45,0,0,1-.4-.525c-.061.044-.124.086-.185.131,0,.86-.013,1.72.013,2.578,0,.145.16.308.282.426a1.008,1.008,0,1,1-1.328,1.513,1.024,1.024,0,0,1,.1-1.532,1.01,1.01,0,0,0,.268-.615c.027-1.012,0-2.028.021-3.04a2.12,2.12,0,0,1,.2-.6,2.028,2.028,0,0,1,.567.276c1.254,1.231,2.491,2.481,3.739,3.72a5.825,5.825,0,0,0,.47.377Z" transform="translate(-577.157 -354.861)" fill="#6c56a4" stroke="#6c56a4" stroke-miterlimit="10" stroke-width="2"></path>
          <path id="Path_61" data-name="Path 61" d="M252.9,483.442c-.017-.805-.008-1.612-.067-2.413a1.4,1.4,0,0,0-.331-.805q-1.635-1.7-3.337-3.339a1.149,1.149,0,0,0-.691-.257A1.009,1.009,0,0,1,247.4,475.6a.988.988,0,0,1,1.048-.986,1.042,1.042,0,0,1,.963,1.147.983.983,0,0,0,.242.622c1.155,1.187,2.346,2.34,3.493,3.535a1.442,1.442,0,0,1,.354.856c.048.887.023,1.779.025,2.669C253.318,483.442,253.112,483.442,252.9,483.442Z" transform="translate(-236.987 -387.988)" fill="#6c56a4" stroke="#6c56a4" stroke-miterlimit="10" stroke-width="2"></path>
          <path id="Path_62" data-name="Path 62" d="M366.281,483.437a2.144,2.144,0,0,1-.008-.434,4.018,4.018,0,0,0-1.735-4.216,15.489,15.489,0,0,1-1.547-1.522c-.373-.369-.675-.78-1.345-.691-.493.065-.871-.506-.835-1.033a1.007,1.007,0,0,1,.982-.932c.527-.011,1.05.379.989.889-.07.582.249.864.586,1.2,1.058,1.05,2.123,2.091,3.149,3.17a1.518,1.518,0,0,1,.386.9c.046.887.006,1.777,0,2.666Z" transform="translate(-326.491 -387.983)" fill="#6c56a4" stroke="#6c56a4" stroke-miterlimit="10" stroke-width="2"></path>
          <path id="Path_63" data-name="Path 63" d="M666.186,249c-2.609,0-5.217.013-7.826.008a.976.976,0,0,0-.906.36.944.944,0,0,1-1.427.019,1.012,1.012,0,0,1,0-1.4.942.942,0,0,1,1.429.015,1.011,1.011,0,0,0,.909.365c2.607,0,5.217.008,7.824.015Z" transform="translate(-559.258 -208.87)" fill="#6c56a4" stroke="#6c56a4" stroke-miterlimit="10" stroke-width="2"></path>
          <path id="Path_64" data-name="Path 64" d="M658.69,501.35c.013-.908.044-1.819.032-2.728-.006-.485.171-.662.658-.649.993.025,1.988.027,2.978-.006a1.21,1.21,0,0,0,.715-.312,1.042,1.042,0,0,1,1.5-.059,1.01,1.01,0,0,1,.021,1.4,1.033,1.033,0,0,1-1.5-.011,1.364,1.364,0,0,0-.769-.339c-.944-.04-1.891-.015-2.89-.015v2.717Z" transform="translate(-561.584 -405.896)" fill="#6c56a4" stroke="#6c56a4" stroke-miterlimit="10" stroke-width="2"></path>
          <path id="Path_65" data-name="Path 65" d="M588.389,483.44c0-2.11.011-4.22-.013-6.33a1.219,1.219,0,0,0-.314-.723,1.046,1.046,0,0,1-.036-1.494,1.009,1.009,0,0,1,1.4.006,1.034,1.034,0,0,1-.044,1.494,1.322,1.322,0,0,0-.32.784c-.038,2.087-.04,4.176-.053,6.265C588.8,483.44,588.6,483.44,588.389,483.44Z" transform="translate(-505.581 -387.986)" fill="#6c56a4" stroke="#6c56a4" stroke-miterlimit="10" stroke-width="2"></path>
          <path id="Path_66" data-name="Path 66" d="M615.826,501.356v-2.713c-1.151,0-2.222-.013-3.29.015-.139,0-.285.2-.407.32a1,1,0,0,1-1.486.034,1.012,1.012,0,0,1,.011-1.4,1.037,1.037,0,0,1,1.494.046,1.235,1.235,0,0,0,.717.318c1.012.036,2.026.025,3.04.011.379-.006.586.1.578.521-.021.951-.023,1.9-.034,2.852C616.242,501.356,616.035,501.356,615.826,501.356Z" transform="translate(-523.446 -405.903)" fill="#6c56a4" stroke="#6c56a4" stroke-miterlimit="10" stroke-width="2"></path>
          <path id="Path_67" data-name="Path 67" d="M116.012-1.109c1.1-.011,2.194,0,3.288-.044a1.263,1.263,0,0,0,.721-.32,1.023,1.023,0,0,1,1.494-.04,1.009,1.009,0,0,1,0,1.4,1.045,1.045,0,0,1-1.5-.038,1.232,1.232,0,0,0-.717-.316c-1.1-.036-2.194-.017-3.292-.019C116.012-.7,116.012-.9,116.012-1.109Z" transform="translate(-133.292 -11.978)" fill="#6c56a4" stroke="#6c56a4" stroke-miterlimit="10" stroke-width="2"></path>
          <path id="Path_68" data-name="Path 68" d="M116.02,66.932c1.138,0,2.279.017,3.417,0a.918.918,0,0,0,.559-.263,1.046,1.046,0,0,1,1.49-.131,1.008,1.008,0,0,1,.036,1.446,1.026,1.026,0,0,1-1.532-.095,1.042,1.042,0,0,0-.622-.27c-1.115-.042-2.232-.046-3.347-.063Z" transform="translate(-133.3 -65.722)" fill="#6c56a4" stroke="#6c56a4" stroke-miterlimit="10" stroke-width="2"></path>
          <path id="Path_69" data-name="Path 69" d="M684.076,67.575c-1.054.017-2.108.015-3.162.065a1.259,1.259,0,0,0-.721.316A1.03,1.03,0,0,1,678.7,68a1,1,0,0,1-.008-1.4,1.048,1.048,0,0,1,1.5.038,1.126,1.126,0,0,0,.658.31c1.075.03,2.152.008,3.229.006C684.076,67.159,684.076,67.368,684.076,67.575Z" transform="translate(-577.147 -65.743)" fill="#6c56a4" stroke="#6c56a4" stroke-miterlimit="10" stroke-width="2"></path>
          <path id="Path_70" data-name="Path 70" d="M361.438,501.337c.013-.578.053-1.155.025-1.731a.975.975,0,0,0-.3-.544,1.021,1.021,0,0,1-.042-1.488,1,1,0,0,1,1.4,0,1.033,1.033,0,0,1-.036,1.49,1.2,1.2,0,0,0-.306.664c-.038.533,0,1.073.006,1.608Z" transform="translate(-326.498 -405.883)" fill="#6c56a4" stroke="#6c56a4" stroke-miterlimit="10" stroke-width="2"></path>
          <path id="Path_71" data-name="Path 71" d="M149.628,233.639c0,1.37-.015,2.654.008,3.935a1.37,1.37,0,0,1-.436,1.094c-2.987,2.962-5.948,5.948-8.941,8.9a1.758,1.758,0,0,1-1.022.413c-.74.061-1.49.017-2.236.019-.544,0-1.069-.082-1.5.464-.312.392-.984.242-1.324-.156a1.009,1.009,0,0,1,.1-1.4.946.946,0,0,1,1.343.03,1.021,1.021,0,0,0,.961.386,9.073,9.073,0,0,0,3.006-.131c.852-.35,1.452-1.315,2.154-2.017,2.272-2.268,4.551-4.532,6.8-6.823a1.555,1.555,0,0,0,.4-.959c.046-1.263.032-2.527.013-3.79-.006-.453.154-.63.615-.622,1.284.019,2.569.027,3.853-.011a1.4,1.4,0,0,0,.858-.352c1.37-1.326,2.694-2.7,4.068-4.02a1.548,1.548,0,0,1,.965-.394q4.351-.044,8.7,0a1.449,1.449,0,0,1,.913.373c1.387,1.336,2.728,2.721,4.11,4.064a1.346,1.346,0,0,0,.8.331c.744.044,1.49.015,2.236.015.485,0,.936.053,1.313-.441a.912.912,0,0,1,1.372.116,1,1,0,0,1-.046,1.357.928.928,0,0,1-1.383.019,1.126,1.126,0,0,0-1.077-.4c-.871.011-1.743.04-2.61-.015a1.627,1.627,0,0,1-.963-.394c-1.345-1.292-2.637-2.637-3.98-3.929a1.542,1.542,0,0,0-.955-.409q-4.1-.047-8.2,0a1.552,1.552,0,0,0-.953.413q-1.97,1.894-3.87,3.864a1.46,1.46,0,0,1-1.2.483C152.25,233.618,150.989,233.639,149.628,233.639Z" transform="translate(-147.44 -193.502)" fill="#6c56a4" stroke="#6c56a4" stroke-miterlimit="10" stroke-width="2"></path>
          <path id="Path_72" data-name="Path 72" d="M272.3,95.031c-1.347,0-2.694.019-4.041-.011a1.272,1.272,0,0,0-1.027.436c-1.3,1.332-2.618,2.658-3.961,3.95a1.576,1.576,0,0,1-.963.4q-1.957.066-3.914,0a1.56,1.56,0,0,1-.961-.4C254.7,96.715,252,94,249.292,91.285a1.025,1.025,0,0,0-.9-.39.925.925,0,0,1-.993-1.016,1,1,0,0,1,1.01-.97,1.06,1.06,0,0,1,1.01,1.054,1.314,1.314,0,0,0,.3.782q4,4.044,8.044,8.041a1.393,1.393,0,0,0,.862.341c1.159.038,2.321.04,3.48,0a1.4,1.4,0,0,0,.856-.354c1.355-1.311,2.664-2.669,4.022-3.978a1.53,1.53,0,0,1,.955-.409q4.351-.047,8.7,0a1.544,1.544,0,0,1,.965.384q2.15,2.068,4.22,4.218a1.463,1.463,0,0,1,.375.913c.03,2.527,0,5.055.03,7.582a1.469,1.469,0,0,0,.348.833,1.05,1.05,0,0,1,0,1.454,1.025,1.025,0,0,1-1.406,0,1.05,1.05,0,0,1,0-1.454,1.458,1.458,0,0,0,.35-.83q.041-3.668,0-7.333a1.452,1.452,0,0,0-.382-.9q-1.9-1.97-3.866-3.87a1.3,1.3,0,0,0-.8-.331C275.077,95.012,273.688,95.031,272.3,95.031Z" transform="translate(-236.984 -83.583)" fill="#6c56a4" stroke="#6c56a4" stroke-miterlimit="10" stroke-width="2"></path>
          <path id="Path_73" data-name="Path 73" d="M449.373,346.807c2.152,2.146,4.235,4.222,6.315,6.3l1.627,1.625c.371.371.681.763,1.341.689.5-.057.864.506.824,1.039a1.007,1.007,0,0,1-.991.927c-.529.006-1.077-.451-.991-.972.084-.5-.171-.721-.445-.995-2.7-2.694-5.383-5.4-8.094-8.077-.4-.4-.417-.662,0-1.06,1.178-1.134,2.323-2.306,3.478-3.465.112-.112.217-.234.4-.428-.268-.013-.443-.03-.615-.03-4.06,0-8.119-.008-12.181.015a1.429,1.429,0,0,0-.9.375q-4.332,4.281-8.613,8.613a1.543,1.543,0,0,0-.382.9c-.057.679-.021,1.366-.017,2.049,0,.54-.095,1.067.468,1.492.4.3.257.986-.131,1.326a1.011,1.011,0,0,1-1.4-.07.919.919,0,0,1,0-1.336,1.21,1.21,0,0,0,.415-1.136,8.946,8.946,0,0,1,.126-3.13c.363-.885,1.368-1.513,2.1-2.245,2.357-2.361,4.707-4.726,7.087-7.063a1.606,1.606,0,0,1,1.012-.432c4.5-.03,8.99-.023,13.486-.011a2.559,2.559,0,0,1,.712.217,3.044,3.044,0,0,1-.379.658C452.227,343.981,450.827,345.363,449.373,346.807Z" transform="translate(-380.122 -283.089)" fill="#6c56a4" stroke="#6c56a4" stroke-miterlimit="10" stroke-width="2"></path>
          <path id="Path_74" data-name="Path 74" d="M476.127,90.066a3.065,3.065,0,0,0,.375.624c1.132,1.153,2.3,2.274,3.408,3.448a1.638,1.638,0,0,1,.432,1.014c.027,4.454.013,8.91.03,13.364a1.458,1.458,0,0,1-.483,1.14q-2,1.954-3.952,3.961a1.355,1.355,0,0,0-.354.852q-.038,4.132,0,8.267a1.441,1.441,0,0,0,.392.9q3.974,4.025,8,8a1.282,1.282,0,0,0,.776.293,1.043,1.043,0,0,1,1.048,1.01,1,1,0,0,1-1.02,1.024,1.064,1.064,0,0,1-1-1.062,1.294,1.294,0,0,0-.3-.778q-4.044-4.088-8.128-8.134a1.384,1.384,0,0,1-.447-1.09c.017-2.879,0-5.761.025-8.64a1.56,1.56,0,0,1,.394-.965c1.3-1.36,2.662-2.671,3.975-4.024a1.366,1.366,0,0,0,.369-.847q.035-6.557,0-13.115a1.28,1.28,0,0,0-.331-.8c-1.075-1.121-2.177-2.217-3.295-3.3a1.236,1.236,0,0,0-.736-.289,1.04,1.04,0,0,1-1.079-1.037,1.025,1.025,0,0,1,1.01-.98A.91.91,0,0,1,476.127,90.066Z" transform="translate(-416.003 -83.576)" fill="#6c56a4" stroke="#6c56a4" stroke-miterlimit="10" stroke-width="2"></path>
          <path id="Path_75" data-name="Path 75" d="M222.257,392.478c-1.408,0-2.818-.019-4.226.017a1.4,1.4,0,0,0-.858.352q-2.011,1.944-3.956,3.952a1.468,1.468,0,0,1-1.2.485c-1.2-.032-2.4-.025-3.6,0a1.217,1.217,0,0,0-.755.293q-1.723,1.66-3.381,3.383a1.134,1.134,0,0,0-.236.689,1.059,1.059,0,0,1-.982,1.077,1.007,1.007,0,0,1-1.031-1.014.933.933,0,0,1,1.037-.978.848.848,0,0,0,.795-.327c1.136-1.149,2.268-2.3,3.438-3.417a1.511,1.511,0,0,1,.913-.382c1.2-.044,2.4-.042,3.6-.008a1.4,1.4,0,0,0,1.134-.485c1.288-1.319,2.588-2.626,3.916-3.9a1.463,1.463,0,0,1,.908-.377c2.837-.03,5.676-.006,8.514-.032a1.368,1.368,0,0,0,.854-.35c1.37-1.324,2.694-2.7,4.066-4.018a1.5,1.5,0,0,1,.913-.377c1.324-.04,2.652-.044,3.975,0a1.59,1.59,0,0,1,.959.409c1.357,1.307,2.669,2.662,4.022,3.973a1.417,1.417,0,0,0,.849.358c.908.046,1.823.034,2.734,0a1.021,1.021,0,0,0,.611-.282,1.044,1.044,0,0,1,1.494-.1,1,1,0,0,1,0,1.446,1.016,1.016,0,0,1-1.49-.078,1.132,1.132,0,0,0-.67-.3c-.932-.034-1.865-.042-2.795,0a1.457,1.457,0,0,1-1.189-.508Q238.7,390,236.71,388.079a1.4,1.4,0,0,0-.854-.354c-1.117-.04-2.236,0-3.356-.025a1.335,1.335,0,0,0-1.088.438q-1.951,2-3.959,3.95a1.483,1.483,0,0,1-.911.377C225.117,392.5,223.686,392.478,222.257,392.478Z" transform="translate(-201.181 -318.865)" fill="#6c56a4" stroke="#6c56a4" stroke-miterlimit="10" stroke-width="2"></path>
          <path id="Path_76" data-name="Path 76" d="M303.315,316.495c1.45,0,2.9-.021,4.348.017a1.481,1.481,0,0,1,.911.375c1.357,1.307,2.688,2.643,4,3.992a1.28,1.28,0,0,0,1.035.419c1.117-.025,2.239.015,3.356-.025a1.41,1.41,0,0,0,.856-.348c1.123-1.073,2.217-2.175,3.3-3.295a1.19,1.19,0,0,0,.272-.725,1.038,1.038,0,0,1,.984-1.069,1,1,0,0,1,1.052.991.96.96,0,0,1-1.039.989.913.913,0,0,0-.847.36c-1.138,1.147-2.272,2.3-3.436,3.419a1.309,1.309,0,0,1-.8.335c-1.366.034-2.734.036-4.1,0a1.4,1.4,0,0,1-.852-.363c-1.368-1.326-2.7-2.694-4.064-4.02a1.379,1.379,0,0,0-.854-.36q-4.132-.041-8.265,0a1.463,1.463,0,0,0-.906.382q-1.948,1.875-3.822,3.822a1.461,1.461,0,0,0-.375.909c-.03,2.424-.013,4.846-.021,7.27a.994.994,0,0,0,.371.906.938.938,0,0,1,0,1.429,1.023,1.023,0,0,1-1.4-.019.954.954,0,0,1,.042-1.429.9.9,0,0,0,.337-.854c0-2.527-.015-5.055.015-7.582a1.462,1.462,0,0,1,.369-.911q2.074-2.144,4.22-4.216a1.571,1.571,0,0,1,.967-.386C300.415,316.47,301.865,316.493,303.315,316.495Z" transform="translate(-272.75 -262.677)" fill="#6c56a4" stroke="#6c56a4" stroke-miterlimit="10" stroke-width="2"></path>
          <path id="Path_77" data-name="Path 77" d="M500.737,190.16c0,1.368-.023,2.736.017,4.1a1.47,1.47,0,0,0,.375.908c2.9,2.932,5.824,5.837,8.72,8.771a1.74,1.74,0,0,1,.422,1.016c.063.782.017,1.572.021,2.361,0,.5-.065.986.453,1.381a.9.9,0,0,1-.108,1.328,1.006,1.006,0,0,1-1.4-.04.941.941,0,0,1-.021-1.341,1.193,1.193,0,0,0,.411-1.14,8.2,8.2,0,0,0-.1-2.827c-.337-.816-1.258-1.391-1.931-2.066q-3.557-3.563-7.127-7.112a1.313,1.313,0,0,1-.417-1.037c.017-2.879,0-5.759.025-8.64a1.549,1.549,0,0,1,.388-.965q2.071-2.147,4.218-4.218a1.558,1.558,0,0,1,.913-.375c.784-.053,1.572-.021,2.361-.015a1.561,1.561,0,0,0,1.44-.462.91.91,0,0,1,1.328.148,1,1,0,0,1-.038,1.355.93.93,0,0,1-1.383.025,1.07,1.07,0,0,0-1.029-.384,8.573,8.573,0,0,0-2.947.118c-.833.341-1.419,1.29-2.108,1.977s-1.362,1.393-2.072,2.059a1.265,1.265,0,0,0-.419,1.035C500.752,187.466,500.737,188.813,500.737,190.16Z" transform="translate(-436.382 -155.125)" fill="#6c56a4" stroke="#6c56a4" stroke-miterlimit="10" stroke-width="2"></path>
          <path id="Path_78" data-name="Path 78" d="M294.588,138.136c-.219-.011-.422-.027-.622-.027-2.631,0-5.263-.013-7.894.017a1.426,1.426,0,0,0-.9.377q-6.418,6.371-12.79,12.79a1.34,1.34,0,0,0-.312.788,1.055,1.055,0,0,1-1.005,1.052,1.035,1.035,0,0,1-1.014-1.045,1.063,1.063,0,0,1,1.069-.995,1.289,1.289,0,0,0,.776-.308q6.46-6.418,12.883-12.875a1.53,1.53,0,0,1,1.2-.491c2.839.019,5.679.008,8.516.011.79,0,.8.013.8.8,0,2.506-.011,5.015.017,7.521a1.434,1.434,0,0,0,.346.835,1.043,1.043,0,0,1,.034,1.452,1.009,1.009,0,1,1-1.4-1.452,1.045,1.045,0,0,0,.335-.59c.021-2.527.013-5.057.011-7.584A1.978,1.978,0,0,0,294.588,138.136Z" transform="translate(-254.862 -121.868)" fill="#6c56a4" stroke="#6c56a4" stroke-miterlimit="10" stroke-width="2"></path>
          <path id="Path_79" data-name="Path 79" d="M203.712,122.156q-2.631-2.615-5.249-5.215c-1.014-1.008-2.011-2.032-3.044-3.018a1.2,1.2,0,0,0-.731-.253,1.034,1.034,0,0,1-1.045-1.01.983.983,0,0,1,1.022-1.012,1.042,1.042,0,0,1,1,1.056,1.3,1.3,0,0,0,.308.778q4.063,4.107,8.168,8.174c.422.417.441.677.006,1.107q-4.483,4.433-8.923,8.916a1.325,1.325,0,0,1-1.031.432c-4.081-.015-8.159-.006-12.24-.013a1.036,1.036,0,0,0-.965.373.94.94,0,0,1-1.427,0,1,1,0,0,1,.017-1.4.954.954,0,0,1,1.431.032.92.92,0,0,0,.843.356c4.039-.008,8.077,0,12.116-.015a1.182,1.182,0,0,0,.769-.257q4.414-4.373,8.794-8.779A2.71,2.71,0,0,0,203.712,122.156Z" transform="translate(-183.228 -101.529)" fill="#6c56a4" stroke="#6c56a4" stroke-miterlimit="10" stroke-width="2"></path>
          <path id="Path_80" data-name="Path 80" d="M367.172,136.9c-1.284,0-2.569-.015-3.851.015a1.246,1.246,0,0,0-.729.3,1.043,1.043,0,0,1-1.5.044,1.014,1.014,0,0,1,0-1.4,1.045,1.045,0,0,1,1.5.036,1.214,1.214,0,0,0,.727.31q3.728.035,7.455,0a1.269,1.269,0,0,0,.8-.329q6.763-6.725,13.486-13.49a1.273,1.273,0,0,0,.327-.807q.035-3.728,0-7.455a1.225,1.225,0,0,0-.335-.715,1.011,1.011,0,1,1,1.4-1.463,1.049,1.049,0,0,1-.032,1.454,1.332,1.332,0,0,0-.341.765c-.025,2.546,0,5.095-.032,7.643a1.451,1.451,0,0,1-.369.913q-6.874,6.921-13.794,13.8a1.483,1.483,0,0,1-.915.369C369.7,136.921,368.437,136.9,367.172,136.9Z" transform="translate(-326.493 -101.528)" fill="#6c56a4" stroke="#6c56a4" stroke-miterlimit="10" stroke-width="2"></path>
          <path id="Path_81" data-name="Path 81" d="M198.974,122.2c-.641-.626-1.237-1.2-1.821-1.783-2.154-2.15-4.3-4.311-6.471-6.446a1.283,1.283,0,0,0-.771-.3,1.074,1.074,0,0,1-1.067-1,1,1,0,0,1,1.02-1.022,1.018,1.018,0,0,1,1,1.045,1.342,1.342,0,0,0,.316.782q4.041,4.085,8.115,8.138c.594.594.594.6.023,1.168-1.391,1.391-2.77,2.795-4.186,4.161a1.442,1.442,0,0,1-.908.373c-4.121.023-8.242.008-12.365.032a1.47,1.47,0,0,0-.835.344,1.049,1.049,0,0,1-1.452,0,.991.991,0,0,1-.013-1.4,1.049,1.049,0,0,1,1.454-.017,1.465,1.465,0,0,0,.833.356c4.018.021,8.035.008,12.053.021a1.311,1.311,0,0,0,1.033-.424C196.252,124.894,197.6,123.574,198.974,122.2Z" transform="translate(-183.224 -101.53)" fill="#6c56a4" stroke="#6c56a4" stroke-miterlimit="10" stroke-width="2"></path>
          <path id="Path_82" data-name="Path 82" d="M378.493,251.58c-1.627-.422-2.736.327-3.75,1.52a35.767,35.767,0,0,1-2.852,2.858,1.568,1.568,0,0,1-.961.4c-2.506.032-5.015.019-7.521.013a1.01,1.01,0,0,0-.915.358.947.947,0,0,1-1.429-.013,1.01,1.01,0,0,1,.032-1.4,1.06,1.06,0,0,1,1.457.027,1.342,1.342,0,0,0,.776.333c2.445.025,4.89.03,7.335,0a1.549,1.549,0,0,0,.961-.394c1.357-1.307,2.666-2.666,4.022-3.978a1.4,1.4,0,0,1,.856-.358c1.326-.038,2.652,0,3.977-.025a1.293,1.293,0,0,1,1.033.428q4.072,4.1,8.181,8.17a1.162,1.162,0,0,0,.723.28,1.06,1.06,0,0,1,1.088.972,1.007,1.007,0,0,1-.989,1.056,1.039,1.039,0,0,1-1.027-1.024,1.476,1.476,0,0,0-.346-.837c-2.591-2.624-5.213-5.219-7.8-7.845a1.562,1.562,0,0,0-1.355-.546C379.493,251.614,378.991,251.58,378.493,251.58Z" transform="translate(-326.482 -211.443)" fill="#6c56a4" stroke="#6c56a4" stroke-miterlimit="10" stroke-width="2"></path>
          <path id="Path_83" data-name="Path 83" d="M380.652,44.915a.911.911,0,0,1,1.189.879.987.987,0,0,1-.97,1.005,1.024,1.024,0,0,1-1.048-1.06,1.449,1.449,0,0,0-.375-.828q-8.793-8.831-17.619-17.628a1.4,1.4,0,0,1-.474-1.142c.034-.744.011-1.492.008-2.236,0-.523.067-1.022-.451-1.44a.912.912,0,0,1,.126-1.33,1.031,1.031,0,0,1,1.406.074.925.925,0,0,1-.011,1.338,1.068,1.068,0,0,0-.39,1.022c.006.7.04,1.412-.011,2.112a1.738,1.738,0,0,0,.592,1.463q8.679,8.635,17.331,17.3A4.484,4.484,0,0,0,380.652,44.915Z" transform="translate(-326.386 -29.902)" fill="#6c56a4" stroke="#6c56a4" stroke-miterlimit="10" stroke-width="2"></path>
          <path id="Path_84" data-name="Path 84" d="M398.5,294.46c-1.138,0-2.19-.011-3.242.013-.143,0-.3.173-.419.3a1.017,1.017,0,0,1-1.49.072,1,1,0,0,1-.021-1.4,1.034,1.034,0,0,1,1.5.011,1.342,1.342,0,0,0,.767.337c.993.038,1.988.03,2.983.008.46-.011.624.171.62.622-.015,1.408.008,2.816-.021,4.224a1.125,1.125,0,0,1-.3.7q-4.575,4.607-9.186,9.178a1.235,1.235,0,0,1-.769.274c-1.117.03-2.236.013-3.356.013h-.736c0,1.126-.011,2.175.013,3.225a.779.779,0,0,0,.278.43,1,1,0,0,1,.116,1.484,1.009,1.009,0,1,1-1.379-1.469,1.129,1.129,0,0,0,.3-.664c.034-.951.013-1.905.015-2.858,0-.809,0-.812.843-.812,1.2,0,2.4.021,3.6-.017a1.377,1.377,0,0,0,.858-.344q4.376-4.325,8.705-8.693a.963.963,0,0,0,.308-.567C398.508,297.2,398.5,295.875,398.5,294.46Z" transform="translate(-344.387 -244.753)" fill="#6c56a4" stroke="#6c56a4" stroke-miterlimit="10" stroke-width="2"></path>
          <path id="Path_85" data-name="Path 85" d="M357.931,65.684c.363-1.4-.369-2.285-1.311-3.214-5.571-5.5-11.087-11.06-16.637-16.582a1.448,1.448,0,0,0-.835-.344,1.012,1.012,0,0,1-.04-2.024.96.96,0,0,1,1.005,1.022.908.908,0,0,0,.388.892q8.812,8.809,17.63,17.613a1.392,1.392,0,0,1,.46,1.145c-.032.744-.011,1.49-.008,2.236,0,.521-.076,1.024.457,1.429a.9.9,0,0,1-.063,1.288,1,1,0,0,1-1.353.08c-.394-.318-.586-.963-.219-1.263.715-.586.489-1.324.527-2.032C357.935,65.848,357.931,65.766,357.931,65.684Z" transform="translate(-308.584 -47.761)" fill="#6c56a4" stroke="#6c56a4" stroke-miterlimit="10" stroke-width="2"></path>
          <path id="Path_86" data-name="Path 86" d="M425.873,317.194c-1.223,0-2.443-.021-3.663.015a1.376,1.376,0,0,0-.86.341q-6.456,6.412-12.87,12.866a1.113,1.113,0,0,0-.263.687A1.012,1.012,0,0,1,407.2,332.2a.982.982,0,0,1-1-1.037,1.052,1.052,0,0,1,1.132-.982,1.272,1.272,0,0,0,.759-.358q6.406-6.374,12.78-12.782a1.649,1.649,0,0,1,1.3-.538c2.485.027,4.968.021,7.453,0a1.215,1.215,0,0,0,.721-.31,1.051,1.051,0,0,1,1.45-.072,1.021,1.021,0,0,1,.032,1.446,1.038,1.038,0,0,1-1.452-.015,1.37,1.37,0,0,0-.776-.337C428.359,317.173,427.117,317.194,425.873,317.194Z" transform="translate(-362.32 -262.693)" fill="#6c56a4" stroke="#6c56a4" stroke-miterlimit="10" stroke-width="2"></path>
          <path id="Path_87" data-name="Path 87" d="M398.673,22.187a.9.9,0,0,1,1.14.856,1.014,1.014,0,0,1-.993,1.056.947.947,0,0,1-.989-1.033,1.018,1.018,0,0,0-.407-.9q-6.4-6.39-12.795-12.778a1.5,1.5,0,0,1-.5-1.187c.025-2.485.011-4.97.015-7.458a.9.9,0,0,0-.348-.849.952.952,0,0,1-.044-1.431,1.009,1.009,0,0,1,1.446.015,1.047,1.047,0,0,1-.053,1.454A1.322,1.322,0,0,0,384.8.7c-.025,2.443-.029,4.888,0,7.333a1.433,1.433,0,0,0,.367.913q6.412,6.459,12.868,12.881A2.685,2.685,0,0,0,398.673,22.187Z" transform="translate(-344.358 -11.968)" fill="#6c56a4" stroke="#6c56a4" stroke-miterlimit="10" stroke-width="2"></path>
          <path id="Path_88" data-name="Path 88" d="M416.3,35.365c0-2.58.006-5-.013-7.424a.864.864,0,0,0-.274-.5,1.032,1.032,0,0,1-.1-1.49,1,1,0,0,1,1.444-.008,1.046,1.046,0,0,1-.076,1.5,1.223,1.223,0,0,0-.287.738c-.021,2.527,0,5.053-.023,7.58a2.7,2.7,0,0,1-.247.765,3.262,3.262,0,0,1-.647-.407q-4.471-4.449-8.91-8.929a1.758,1.758,0,0,1-.419-1.018c-.063-.761-.019-1.53-.019-2.3,0-.523.061-1.022-.451-1.438a.91.91,0,0,1,.131-1.328,1.026,1.026,0,0,1,1.36.03.928.928,0,0,1,.034,1.381,1.073,1.073,0,0,0-.388,1.024,8.576,8.576,0,0,0,.116,2.947c.339.833,1.286,1.421,1.973,2.108q3.118,3.121,6.239,6.237C415.889,34.985,416.039,35.12,416.3,35.365Z" transform="translate(-362.192 -29.882)" fill="#6c56a4" stroke="#6c56a4" stroke-miterlimit="10" stroke-width="2"></path>
          <path id="Path_89" data-name="Path 89" d="M325.662,346.46V342.4H316.83c-.011.167-.032.325-.032.485,0,2.4-.011,4.8.013,7.207a1.2,1.2,0,0,0,.312.721,1.05,1.05,0,0,1,.03,1.5,1.025,1.025,0,0,1-1.4-.015,1.036,1.036,0,0,1,.057-1.492,1.208,1.208,0,0,0,.3-.731c.021-2.525.013-5.053.013-7.58,0-.776.025-.8.8-.8,2.9,0,5.8.011,8.7-.008.552,0,.778.143.759.738-.038,1.345-.03,2.692,0,4.036.011.519-.179.7-.689.681-.826-.03-1.657-.006-2.485-.008a1.475,1.475,0,0,0-1.374.455.908.908,0,0,1-1.368-.15,1.019,1.019,0,0,1,.08-1.355.95.95,0,0,1,1.387.019,1.007,1.007,0,0,0,.963.373C323.795,346.454,324.7,346.46,325.662,346.46Z" transform="translate(-290.699 -283.073)" fill="#6c56a4" stroke="#6c56a4" stroke-miterlimit="10" stroke-width="2"></path>
          <path id="Path_90" data-name="Path 90" d="M507.157,22.087c.881-.017,1.33.377,1.336.974a1.022,1.022,0,0,1-1.026,1.024,1.047,1.047,0,0,1-.991-1.064,1.347,1.347,0,0,0-.32-.784q-4.019-4.066-8.079-8.088a1.521,1.521,0,0,1-.5-1.189c.019-4.081.008-8.159.015-12.24a.944.944,0,0,0-.35-.852.962.962,0,0,1-.013-1.433,1,1,0,0,1,1.4.006,1.039,1.039,0,0,1,0,1.452,1.459,1.459,0,0,0-.348.837c-.023,4.018-.011,8.035-.025,12.055a1.314,1.314,0,0,0,.432,1.029c2.662,2.639,5.305,5.3,7.963,7.94A2.172,2.172,0,0,0,507.157,22.087Z" transform="translate(-433.905 -11.954)" fill="#6c56a4" stroke="#6c56a4" stroke-miterlimit="10" stroke-width="2"></path>
          <path id="Path_91" data-name="Path 91" d="M488.8,391.833c-1.416-1.41-2.7-2.694-4-3.963a.69.69,0,0,0-.447-.145q-4.287-.009-8.577,0a1.081,1.081,0,0,0-.2.059c0,1.062-.011,2.152.013,3.242,0,.122.179.251.291.358a1.017,1.017,0,0,1,.07,1.49,1,1,0,0,1-1.4.019,1.026,1.026,0,0,1,.019-1.5,1.335,1.335,0,0,0,.329-.776c.038-.993.025-1.988.011-2.983-.006-.424.154-.592.584-.59,3.025.011,6.049,0,9.074.019a1.115,1.115,0,0,1,.693.31q2.2,2.153,4.351,4.351a1.783,1.783,0,0,1,.249.575,1.949,1.949,0,0,1-.554.177c-2.569.013-5.139,0-7.706.025a1.447,1.447,0,0,0-.833.352,1.041,1.041,0,0,1-1.454.021,1.022,1.022,0,0,1,.023-1.45,1.032,1.032,0,0,1,1.45.072.954.954,0,0,0,.531.316C483.741,391.839,486.165,391.833,488.8,391.833Z" transform="translate(-416.01 -318.88)" fill="#6c56a4" stroke="#6c56a4" stroke-miterlimit="10" stroke-width="2"></path>
          <path id="Path_92" data-name="Path 92" d="M226,255.067a2,2,0,0,0,.464-.3c1.151-1.132,2.272-2.3,3.442-3.408a1.549,1.549,0,0,1,.961-.394q4.379-.044,8.756,0a1.449,1.449,0,0,1,.906.379c1.37,1.322,2.7,2.692,4.062,4.018a1.367,1.367,0,0,0,.8.333c.721.046,1.448.013,2.173.017.527,0,1.022.055,1.435-.457a.919.919,0,0,1,1.328.139,1.007,1.007,0,0,1-.034,1.357.932.932,0,0,1-1.383.034,1.122,1.122,0,0,0-1.029-.392c-.765.011-1.537-.042-2.3.019a1.874,1.874,0,0,1-1.621-.679c-1.2-1.258-2.458-2.462-3.672-3.706a1.29,1.29,0,0,0-1.024-.436c-2.713.019-5.423,0-8.136.025a1.466,1.466,0,0,0-.908.369c-1.123,1.071-2.215,2.175-3.295,3.292a1.118,1.118,0,0,0-.272.681,1.01,1.01,0,1,1-2.015.067C224.659,255.442,225.114,255.056,226,255.067Z" transform="translate(-219.023 -211.464)" fill="#6c56a4" stroke="#6c56a4" stroke-miterlimit="10" stroke-width="2"></path>
          <path id="Path_93" data-name="Path 93" d="M378.521,274.22c-1.688-.449-2.812.375-3.849,1.587a34.959,34.959,0,0,1-2.766,2.768,1.578,1.578,0,0,1-.961.4c-2.548.032-5.1.008-7.645.032a1.2,1.2,0,0,0-.717.318,1.043,1.043,0,0,1-1.5.036,1.014,1.014,0,0,1,.006-1.4,1.028,1.028,0,0,1,1.5.048,1.208,1.208,0,0,0,.719.318q3.728.035,7.458,0a1.281,1.281,0,0,0,.8-.341c1.383-1.343,2.725-2.723,4.11-4.064a1.4,1.4,0,0,1,.854-.36c1.345-.038,2.694-.038,4.039,0a1.405,1.405,0,0,1,.858.356c1.18,1.132,2.316,2.312,3.493,3.448a1.176,1.176,0,0,0,.721.278,1.05,1.05,0,0,1,1.09,1.035,1,1,0,0,1-.989.995,1.05,1.05,0,0,1-1.039-1.086,1.184,1.184,0,0,0-.274-.725c-1.05-1.09-2.139-2.137-3.191-3.225a1.228,1.228,0,0,0-1.035-.419C379.643,274.243,379.082,274.22,378.521,274.22Z" transform="translate(-326.489 -229.285)" fill="#6c56a4" stroke="#6c56a4" stroke-miterlimit="10" stroke-width="2"></path>
          <path id="Path_94" data-name="Path 94" d="M520.875-48.13c.36.314.79.514.877.812a2.292,2.292,0,0,1-.213,1.13c-.08.268-.31.512-.325.776-.044.763.019,1.532-.027,2.3a1.683,1.683,0,0,0,.571,1.408q4.309,4.253,8.562,8.564a1.617,1.617,0,0,1,.426,1.012c.036,2.525.008,5.05.034,7.578a1.356,1.356,0,0,0,.329.78,1.058,1.058,0,0,1,.046,1.454.992.992,0,0,1-1.442.006,1.032,1.032,0,0,1,.023-1.45,1.443,1.443,0,0,0,.352-.83q.041-3.633,0-7.266a1.519,1.519,0,0,0-.4-.959q-4.341-4.4-8.731-8.748a1.275,1.275,0,0,1-.426-1.033c.029-.786.006-1.572.008-2.361a1.506,1.506,0,0,0-.445-1.385,1.113,1.113,0,0,1-.1-1.008C520.112-47.641,520.5-47.818,520.875-48.13Z" transform="translate(-452.068 24.571)" fill="#6c56a4" stroke="#6c56a4" stroke-miterlimit="10" stroke-width="2"></path>
          <path id="Path_95" data-name="Path 95" d="M307.242,53.738c-.177-.2-.287-.341-.411-.466-2.475-2.477-4.945-4.956-7.436-7.415a1.346,1.346,0,0,0-.788-.308,1.029,1.029,0,0,1-1.039-1.012,1.013,1.013,0,0,1,.976-1.01.945.945,0,0,1,1.008,1.014,1.043,1.043,0,0,0,.394.9q4.072,4.057,8.126,8.132a2.652,2.652,0,0,1,.358.656,2.848,2.848,0,0,1-.729.2q-6.153.019-12.3.006a.977.977,0,0,0-.9.363.961.961,0,0,1-1.389.036,1.028,1.028,0,0,1-.061-1.4.935.935,0,0,1,1.427-.038,1.075,1.075,0,0,0,.965.386q5.593-.013,11.186-.008C306.8,53.77,306.975,53.753,307.242,53.738Z" transform="translate(-272.813 -47.767)" fill="#6c56a4" stroke="#6c56a4" stroke-miterlimit="10" stroke-width="2"></path>
          <path id="Path_96" data-name="Path 96" d="M279.761,430.593c-2.574,0-5-.006-7.42.013a.847.847,0,0,0-.5.272,1.04,1.04,0,0,1-1.49.108,1,1,0,0,1-.013-1.444,1.037,1.037,0,0,1,1.494.065,1.227,1.227,0,0,0,.736.3c2.527.021,5.055.006,7.582.025a2.853,2.853,0,0,1,.771.238,3.442,3.442,0,0,1-.407.649c-2.7,2.717-5.419,5.419-8.113,8.145a1.472,1.472,0,0,0-.348.837,1.01,1.01,0,0,1-1.022,1.02.991.991,0,0,1-1-.978.963.963,0,0,1,1.024-1,.954.954,0,0,0,.852-.348q3.68-3.7,7.38-7.386C279.419,430.97,279.537,430.833,279.761,430.593Z" transform="translate(-254.855 -352.187)" fill="#6c56a4" stroke="#6c56a4" stroke-miterlimit="10" stroke-width="2"></path>
          <path id="Path_97" data-name="Path 97" d="M307.781,160.807c-1.425,0-2.766-.011-4.106.015a.925.925,0,0,0-.5.312q-4.095,4.079-8.166,8.176a.984.984,0,0,0-.211.63,1.064,1.064,0,0,1-1.005,1.121,1.007,1.007,0,0,1-1.01-1.037,1.019,1.019,0,0,1,1.113-.993,1.157,1.157,0,0,0,.715-.312q4.082-4.044,8.128-8.124a1.362,1.362,0,0,1,1.083-.457c1.324.03,2.652.03,3.975,0,.525-.011.7.183.677.689-.03.807-.011,1.615-.006,2.422,0,.521-.074,1.024.453,1.435.388.3.255.991-.129,1.33a1.026,1.026,0,0,1-1.36-.023.927.927,0,0,1-.038-1.383,1.133,1.133,0,0,0,.392-1.086C307.779,162.641,307.781,161.758,307.781,160.807Z" transform="translate(-272.801 -139.798)" fill="#6c56a4" stroke="#6c56a4" stroke-miterlimit="10" stroke-width="2"></path>
          <path id="Path_98" data-name="Path 98" d="M210.172,46.259c1.861-.483,3.151.367,4.277,1.747a21.167,21.167,0,0,0,2.061,2.064,1.267,1.267,0,0,0,.734.3,1.007,1.007,0,1,1,.067,2.013,1.052,1.052,0,0,1-1.018-1.1,1.093,1.093,0,0,0-.251-.681q-1.663-1.717-3.379-3.383a1.124,1.124,0,0,0-.7-.28c-1.22-.027-2.443-.03-3.663,0a1.13,1.13,0,0,0-.7.287q-2.02,1.973-3.992,4a1.271,1.271,0,0,0-.3.757c-.04.723-.015,1.448-.013,2.173,0,.525-.065,1.024.457,1.438a.9.9,0,0,1-.137,1.324,1.025,1.025,0,0,1-1.357-.038.935.935,0,0,1-.027-1.383,1.079,1.079,0,0,0,.388-1.022c0-.911-.032-1.823.015-2.732a1.429,1.429,0,0,1,.358-.856q2.074-2.141,4.216-4.216a1.582,1.582,0,0,1,.908-.388C208.8,46.219,209.489,46.259,210.172,46.259Z" transform="translate(-201.117 -49.815)" fill="#6c56a4" stroke="#6c56a4" stroke-miterlimit="10" stroke-width="2"></path>
          <path id="Path_99" data-name="Path 99" d="M380.035,158.155a.908.908,0,0,1,.906-1.155.994.994,0,0,1,1,1.041,1.043,1.043,0,0,1-1.134.978,1.052,1.052,0,0,0-.666.272q-4.1,4.066-8.17,8.166a1.367,1.367,0,0,1-1.086.443q-3.788-.025-7.578.006a1.191,1.191,0,0,0-.719.314,1.029,1.029,0,0,1-1.494.057,1.014,1.014,0,0,1-.017-1.4,1.038,1.038,0,0,1,1.5.021,1.317,1.317,0,0,0,.776.331q3.7.038,7.39,0a1.259,1.259,0,0,0,.8-.325q4.088-4.038,8.132-8.115A2.883,2.883,0,0,0,380.035,158.155Z" transform="translate(-326.485 -137.321)" fill="#6c56a4" stroke="#6c56a4" stroke-miterlimit="10" stroke-width="2"></path>
          <path id="Path_100" data-name="Path 100" d="M530.054,40.127a.884.884,0,0,1,1.134.862,1,1,0,0,1-1.005,1.041.96.96,0,0,1-.98-1.048.9.9,0,0,0-.365-.843c-2.7-2.694-5.386-5.4-8.094-8.079a1.39,1.39,0,0,1-.455-1.086c.019-2.506.021-5.015-.006-7.521a1.453,1.453,0,0,0-.36-.828,1.036,1.036,0,0,1-.006-1.454,1.025,1.025,0,0,1,1.406-.013.973.973,0,0,1-.008,1.435.928.928,0,0,0-.36.845c.01,2.445-.008,4.89.023,7.333a1.448,1.448,0,0,0,.377.9q3.993,4.047,8.035,8.048A3.131,3.131,0,0,0,530.054,40.127Z" transform="translate(-451.828 -29.898)" fill="#6c56a4" stroke="#6c56a4" stroke-miterlimit="10" stroke-width="2"></path>
          <path id="Path_101" data-name="Path 101" d="M566.261,226.307V227q0,8.259,0,16.519a.934.934,0,0,0,.341.858.963.963,0,0,1,.036,1.431,1.009,1.009,0,0,1-1.4.015.934.934,0,0,1,0-1.427.977.977,0,0,0,.369-.906q-.006-8.445,0-16.892c0-.974,0-.974,1-.974q1.056,0,2.112,0c.527,0,1.024.061,1.438-.462.306-.388.984-.245,1.324.15a.984.984,0,0,1-.086,1.4.913.913,0,0,1-1.334-.017,1.077,1.077,0,0,0-1.029-.386C568.133,226.311,567.244,226.307,566.261,226.307Z" transform="translate(-487.565 -190.937)" fill="#6c56a4" stroke="#6c56a4" stroke-miterlimit="10" stroke-width="2"></path>
          <path id="Path_102" data-name="Path 102" d="M212.224,339.807c-2.679,0-5.286,0-7.894.013a.824.824,0,0,0-.491.268,1.041,1.041,0,0,1-1.492.126,1.012,1.012,0,1,1,1.465-1.391,1.206,1.206,0,0,0,.725.312c2.506.023,5.01.013,7.517.013.868,0,.873,0,.873.852q0,6.118,0,12.238a.917.917,0,0,0,.341.858.935.935,0,0,1,.055,1.425.99.99,0,0,1-1.442,0,1.039,1.039,0,0,1,.044-1.45,1.126,1.126,0,0,0,.327-.653c.019-4.058.015-8.117.013-12.177C212.257,340.119,212.241,340,212.224,339.807Z" transform="translate(-201.183 -280.536)" fill="#6c56a4" stroke="#6c56a4" stroke-miterlimit="10" stroke-width="2"></path>
          <path id="Path_103" data-name="Path 103" d="M569.615,185.163c1.06,0,1.922.013,2.784-.013.145,0,.3-.167.422-.289a1.01,1.01,0,1,1,1.495,1.353,1.026,1.026,0,0,1-1.495-.078,1.111,1.111,0,0,0-.662-.3c-1.035-.032-2.072-.006-3.107-.023-.167,0-.457-.091-.468-.171a.715.715,0,0,1,.169-.531c1.482-1.505,2.972-3,4.485-4.477a1.22,1.22,0,0,1,.782-.251c2.527-.017,5.055,0,7.582-.025a1.473,1.473,0,0,0,.837-.348,1.048,1.048,0,0,1,1.454,0,.989.989,0,0,1,.006,1.4.95.95,0,0,1-1.429-.008.966.966,0,0,0-.856-.35c-2.464.008-4.93,0-7.394.013a1.035,1.035,0,0,0-.668.2C572.273,182.5,571.02,183.764,569.615,185.163Z" transform="translate(-490.467 -155.247)" fill="#6c56a4" stroke="#6c56a4" stroke-miterlimit="10" stroke-width="2"></path>
          <path id="Path_104" data-name="Path 104" d="M382.146,226.314a4.71,4.71,0,0,1-.814.921.943.943,0,0,1-1.136-.2,1.415,1.415,0,0,0-.774-.339,8.112,8.112,0,0,0-3.073.089c-.868.348-1.486,1.33-2.207,2.042-.753.742-1.475,1.513-2.253,2.226a1.5,1.5,0,0,1-.906.379c-2.546.03-5.095.006-7.641.032a1.314,1.314,0,0,0-.774.335,1.044,1.044,0,0,1-1.452.055,1.012,1.012,0,0,1-.017-1.448.945.945,0,0,1,1.429.042.918.918,0,0,0,.849.35c2.4-.006,4.806-.015,7.207.006a1.357,1.357,0,0,0,1.086-.441q1.973-2.024,4-3.992a1.438,1.438,0,0,1,.858-.356c.93-.044,1.863-.023,2.795-.015a1.165,1.165,0,0,0,.925-.339,1.236,1.236,0,0,1,1.05-.219C381.6,225.53,381.806,225.941,382.146,226.314Z" transform="translate(-326.486 -191.305)" fill="#6c56a4" stroke="#6c56a4" stroke-miterlimit="10" stroke-width="2"></path>
          <path id="Path_105" data-name="Path 105" d="M523.491,185.764v4.11c1.1,0,2.171.008,3.242-.013.129,0,.27-.154.377-.261a1.018,1.018,0,0,1,1.486-.114,1,1,0,0,1,.023,1.444,1.042,1.042,0,0,1-1.495-.061,1.154,1.154,0,0,0-.672-.3c-1.014-.032-2.028-.032-3.042-.008-.462.011-.624-.169-.62-.62.015-1.408.021-2.814,0-4.222-.008-.51.211-.63.674-.624,1.284.021,2.567.023,3.849-.008a1.206,1.206,0,0,0,.748-.306q1.7-1.638,3.337-3.337a1.2,1.2,0,0,0,.274-.731,1.044,1.044,0,0,1,.982-1.071.988.988,0,0,1,1.037,1,1.01,1.01,0,0,1-1.026,1.016,1.508,1.508,0,0,0-.837.35c-1.149,1.1-2.251,2.258-3.4,3.356a1.488,1.488,0,0,1-.909.371C526.193,185.787,524.872,185.764,523.491,185.764Z" transform="translate(-454.328 -155.194)" fill="#6c56a4" stroke="#6c56a4" stroke-miterlimit="10" stroke-width="2"></path>
          <path id="Path_106" data-name="Path 106" d="M320.909,184.12c-1.412,1.414-2.7,2.7-3.967,3.992a.811.811,0,0,0-.137.51c-.013.953-.023,1.906.006,2.858a1.045,1.045,0,0,0,.282.613,1.046,1.046,0,0,1,.084,1.494,1.009,1.009,0,0,1-1.446-.006,1.04,1.04,0,0,1,.095-1.494,1.045,1.045,0,0,0,.278-.618c.03-.972-.019-1.948.034-2.919a1.628,1.628,0,0,1,.39-.97c1.379-1.431,2.8-2.829,4.211-4.224a2.56,2.56,0,0,1,.607-.337,2.328,2.328,0,0,1,.211.656c.015,2.546,0,5.095.025,7.641a1.452,1.452,0,0,0,.358.826,1.04,1.04,0,0,1,.011,1.452,1.006,1.006,0,0,1-1.446-.03,1.016,1.016,0,0,1,.072-1.446.956.956,0,0,0,.318-.535C320.916,189.166,320.909,186.745,320.909,184.12Z" transform="translate(-290.7 -157.857)" fill="#6c56a4" stroke="#6c56a4" stroke-miterlimit="10" stroke-width="2"></path>
          <path id="Path_107" data-name="Path 107" d="M563.662,135.257c-.316.371-.5.778-.784.873a1.221,1.221,0,0,1-1.06-.162,1.265,1.265,0,0,0-1.035-.377q-7.923.006-15.845,0a1.007,1.007,0,0,0-.909.358.957.957,0,0,1-1.431,0,1.03,1.03,0,0,1,.025-1.406.936.936,0,0,1,1.385,0,1.071,1.071,0,0,0,.972.377q7.892-.009,15.784,0a1.28,1.28,0,0,0,1.043-.369,1.2,1.2,0,0,1,1.052-.173C563.16,134.483,563.352,134.9,563.662,135.257Z" transform="translate(-469.753 -119.353)" fill="#6c56a4" stroke="#6c56a4" stroke-miterlimit="10" stroke-width="2"></path>
          <path id="Path_108" data-name="Path 108" d="M580,430.523h-.731q-5.84,0-11.682,0a1.016,1.016,0,0,0-.909.367.96.96,0,0,1-1.389.027,1,1,0,0,1-.053-1.4.944.944,0,0,1,1.427-.038,1.1,1.1,0,0,0,.974.373c4.081-.008,8.159,0,12.24-.015.58,0,.828.152.79.771-.048.784-.013,1.572-.01,2.361,0,.523-.068,1.02.466,1.431a.9.9,0,0,1-.12,1.326,1.008,1.008,0,0,1-1.4-.055.93.93,0,0,1-.013-1.341,1.2,1.2,0,0,0,.411-1.138C579.989,432.323,580,431.459,580,430.523Z" transform="translate(-487.619 -352.119)" fill="#6c56a4" stroke="#6c56a4" stroke-miterlimit="10" stroke-width="2"></path>
          <path id="Path_109" data-name="Path 109" d="M546.538,344.212c2.869,2.862,5.651,5.643,8.448,8.408a.957.957,0,0,0,.6.162,1.008,1.008,0,1,1,.072,2.013,1.048,1.048,0,0,1-1.016-1.041,1.464,1.464,0,0,0-.348-.835q-4.038-4.088-8.124-8.13c-.445-.441-.464-.708,0-1.145,1.17-1.113,2.3-2.266,3.427-3.425a1.1,1.1,0,0,0,.261-.679,1.06,1.06,0,0,1,1-1.121,1.012,1.012,0,0,1,1.014,1.035,1,1,0,0,1-1.119.974.782.782,0,0,0-.5.116C549.025,341.742,547.809,342.954,546.538,344.212Z" transform="translate(-472.515 -280.5)" fill="#6c56a4" stroke="#6c56a4" stroke-miterlimit="10" stroke-width="2"></path>
          <path id="Path_110" data-name="Path 110" d="M257.6,275.92v-4.074c-.2-.013-.4-.038-.6-.038-2.359,0-4.719-.013-7.078.013a1.342,1.342,0,0,0-.774.337,1.04,1.04,0,0,1-1.452.019,1.019,1.019,0,0,1,.021-1.446,1.046,1.046,0,0,1,1.45.061,1.229,1.229,0,0,0,.719.316c2.546.023,5.093.03,7.637,0,.6-.006.8.175.782.778-.038,1.3-.034,2.607,0,3.912.015.578-.139.822-.763.79-.951-.048-1.9-.034-2.854,0a1.241,1.241,0,0,0-.721.308,1.046,1.046,0,0,1-1.5.053,1,1,0,0,1-.013-1.4,1.035,1.035,0,0,1,1.5.023,1.339,1.339,0,0,0,.774.331C255.665,275.944,256.614,275.92,257.6,275.92Z" transform="translate(-236.988 -226.871)" fill="#6c56a4" stroke="#6c56a4" stroke-miterlimit="10" stroke-width="2"></path>
          <path id="Path_111" data-name="Path 111" d="M592.114,364.983c1.21,1.206,2.285,2.289,3.381,3.351a.763.763,0,0,0,.5.093,1,1,0,0,1,1.109.993.98.98,0,0,1-.957,1.014,1.033,1.033,0,0,1-1.058-1.056,1.336,1.336,0,0,0-.318-.782c-1.121-1.164-2.281-2.289-3.411-3.444a2.586,2.586,0,0,1-.335-.611,2.334,2.334,0,0,1,.656-.213c1.368-.019,2.736-.027,4.1.006a1.3,1.3,0,0,1,.8.341c1.193,1.151,2.346,2.342,3.535,3.495a1.094,1.094,0,0,0,.677.247,1.063,1.063,0,0,1,1.109,1.018,1.013,1.013,0,1,1-2.024-.072,1.231,1.231,0,0,0-.291-.731q-1.619-1.679-3.295-3.3a1.318,1.318,0,0,0-.8-.337C594.422,364.962,593.353,364.983,592.114,364.983Z" transform="translate(-508.178 -300.934)" fill="#6c56a4" stroke="#6c56a4" stroke-miterlimit="10" stroke-width="2"></path>
          <path id="Path_112" data-name="Path 112" d="M228.472,67.547c-.352,0-.7.006-1.056,0a1.111,1.111,0,0,0-1.081.4.917.917,0,0,1-1.379-.021.993.993,0,0,1-.013-1.4.96.96,0,0,1,1.431.006.977.977,0,0,0,.911.356c.868-.013,1.739.023,2.607-.015a1.462,1.462,0,0,1,1.2.487c2.679,2.706,5.379,5.39,8.067,8.088A.936.936,0,0,0,240,75.8a.952.952,0,0,1,1.029.993,1.03,1.03,0,0,1-.993,1,1.043,1.043,0,0,1-1.031-1.024,1.468,1.468,0,0,0-.335-.837c-2.532-2.559-5.1-5.086-7.618-7.66a1.948,1.948,0,0,0-1.779-.731A5.4,5.4,0,0,1,228.472,67.547Z" transform="translate(-219.041 -65.665)" fill="#6c56a4" stroke="#6c56a4" stroke-miterlimit="10" stroke-width="2"></path>
          <path id="Path_113" data-name="Path 113" d="M614.3,208.5h-1.244a1.071,1.071,0,0,0-1.033.377.928.928,0,0,1-1.383-.013,1,1,0,0,1-.013-1.4,1.049,1.049,0,0,1,1.454-.019,1.794,1.794,0,0,0,.835.356c.384.061.792-.038,1.176.025a3.3,3.3,0,0,0,3.276-1.332,36.37,36.37,0,0,1,3.025-3.035,1.634,1.634,0,0,1,.963-.39c.951-.051,1.905,0,2.858-.034a1.219,1.219,0,0,0,.715-.32,1.04,1.04,0,0,1,1.5-.042,1.014,1.014,0,0,1,0,1.4,1.032,1.032,0,0,1-1.5-.032,1.222,1.222,0,0,0-.712-.327,7.987,7.987,0,0,0-3.073.078c-.887.363-1.518,1.36-2.253,2.085-.693.683-1.4,1.353-2.057,2.072a1.5,1.5,0,0,1-1.357.554A11.6,11.6,0,0,0,614.3,208.5Z" transform="translate(-523.433 -173.129)" fill="#6c56a4" stroke="#6c56a4" stroke-miterlimit="10" stroke-width="2"></path>
          <path id="Path_114" data-name="Path 114" d="M189.517,2.019c-1.427,0-2.753-.011-4.077.013a.876.876,0,0,0-.514.282c-1.151,1.134-2.3,2.272-3.425,3.432a1.012,1.012,0,0,0-.213.637,1.011,1.011,0,1,1-2.019.105,1.032,1.032,0,0,1,1.086-1.027,1.245,1.245,0,0,0,.736-.3c1.176-1.138,2.312-2.317,3.491-3.453a1.313,1.313,0,0,1,.8-.339c1.387-.034,2.776,0,4.163-.023.5-.008.649.181.637.66-.027,1.014-.023,2.03.006,3.046a1.027,1.027,0,0,0,.282.613,1.046,1.046,0,0,1,.1,1.494,1.008,1.008,0,1,1-1.362-1.482c.122-.122.287-.28.291-.426C189.527,4.205,189.517,3.153,189.517,2.019Z" transform="translate(-183.216 -14.479)" fill="#6c56a4" stroke="#6c56a4" stroke-miterlimit="10" stroke-width="2"></path>
          <path id="Path_115" data-name="Path 115" d="M634.417,298.507h4.1c0-1.107.01-2.194-.013-3.282,0-.124-.179-.253-.289-.365a1.008,1.008,0,1,1,1.357-1.488,1.05,1.05,0,0,1-.042,1.5,1.242,1.242,0,0,0-.306.725c-.034.993-.029,1.986-.006,2.978.013.489-.183.658-.66.651q-2.08-.025-4.159,0c-.478.006-.664-.169-.651-.656.025-.993.03-1.988-.006-2.978a1.23,1.23,0,0,0-.314-.719,1.049,1.049,0,0,1-.044-1.5,1,1,0,0,1,1.4-.006,1.022,1.022,0,0,1-.029,1.494,1.233,1.233,0,0,0-.327.715C634.4,296.543,634.417,297.51,634.417,298.507Z" transform="translate(-541.383 -244.722)" fill="#6c56a4" stroke="#6c56a4" stroke-miterlimit="10" stroke-width="2"></path>
          <path id="Path_116" data-name="Path 116" d="M589.091,271.685c-.017.255-.038.417-.038.58,0,2.38-.011,4.762.013,7.141a1.2,1.2,0,0,0,.316.723,1.026,1.026,0,0,1,.048,1.492,1,1,0,0,1-1.4.013,1.042,1.042,0,0,1,.032-1.5,1.211,1.211,0,0,0,.316-.721q.035-3.851,0-7.7c0-.533.156-.748.708-.723.784.036,1.573.011,2.359.008.54,0,1.064.089,1.5-.457a.906.906,0,0,1,1.324.143,1.033,1.033,0,0,1-.044,1.36.927.927,0,0,1-1.381.019,1.059,1.059,0,0,0-1.027-.382Z" transform="translate(-505.58 -226.75)" fill="#6c56a4" stroke="#6c56a4" stroke-miterlimit="10" stroke-width="2"></path>
          <path id="Path_117" data-name="Path 117" d="M524.229,249.085c1.083,1.075,2.161,2.158,3.263,3.217.116.112.375.1.569.1a1,1,0,1,1,.006,2,1.024,1.024,0,0,1-.978-1.069,1.237,1.237,0,0,0-.289-.738c-1.138-1.176-2.31-2.319-3.457-3.488a2.3,2.3,0,0,1-.314-.618,2.718,2.718,0,0,1,.668-.19c.744-.025,1.492,0,2.236-.013.578,0,1.149.11,1.612-.481.31-.394.98-.24,1.317.162a1,1,0,0,1-.055,1.355.9.9,0,0,1-1.332.048c-.356-.493-.795-.426-1.256-.43-.641,0-1.279,0-1.92,0C524.278,248.995,524.255,249.039,524.229,249.085Z" transform="translate(-454.519 -208.811)" fill="#6c56a4" stroke="#6c56a4" stroke-miterlimit="10" stroke-width="2"></path>
          <path id="Path_118" data-name="Path 118" d="M225.256,366.955c0-.911,0-1.821,0-2.732,0-.523.07-1.022-.455-1.438a.911.911,0,0,1,.148-1.368,1.029,1.029,0,0,1,1.355.086.944.944,0,0,1-.017,1.385,1.015,1.015,0,0,0-.375.959c.006,2.131-.008,4.264.019,6.4a1.341,1.341,0,0,0,.339.769,1.064,1.064,0,0,1,.034,1.457,1,1,0,0,1-1.444,0,1.028,1.028,0,0,1,.036-1.45,1.349,1.349,0,0,0,.344-.769C225.28,369.149,225.256,368.053,225.256,366.955Z" transform="translate(-218.954 -298.482)" fill="#6c56a4" stroke="#6c56a4" stroke-miterlimit="10" stroke-width="2"></path>
          <path id="Path_119" data-name="Path 119" d="M135.249,249.07c0,1.128-.013,2.161.015,3.191a.882.882,0,0,0,.3.483,1.007,1.007,0,1,1-1.271-.019,1.121,1.121,0,0,0,.293-.67c.032-.993.038-1.988,0-2.978-.019-.527.183-.683.687-.668q1.458.044,2.917-.006a1.225,1.225,0,0,0,.725-.306,1.025,1.025,0,0,1,1.492-.072,1.006,1.006,0,1,1-1.494,1.343c-.118-.122-.28-.278-.426-.282C137.439,249.059,136.387,249.07,135.249,249.07Z" transform="translate(-147.419 -208.93)" fill="#6c56a4" stroke="#6c56a4" stroke-miterlimit="10" stroke-width="2"></path>
          <path id="Path_120" data-name="Path 120" d="M588.755,32.665c-.382-.329-.8-.523-.9-.824a1.242,1.242,0,0,1,.19-1.058,1.273,1.273,0,0,0,.369-.972c-.013-2.131,0-4.264-.021-6.4a1.332,1.332,0,0,0-.327-.771,1.061,1.061,0,0,1-.053-1.454,1.017,1.017,0,0,1,1.446-.011,1.028,1.028,0,0,1-.025,1.45,1.339,1.339,0,0,0-.348.769q-.041,3.291,0,6.581a1.271,1.271,0,0,0,.335.71c.291.35.478.731.232,1.126A5.274,5.274,0,0,1,588.755,32.665Z" transform="translate(-505.594 -29.895)" fill="#6c56a4" stroke="#6c56a4" stroke-miterlimit="10" stroke-width="2"></path>
          <path id="Path_121" data-name="Path 121" d="M452.95,184.489a1.337,1.337,0,0,0,.382-.228q1.442-1.41,2.85-2.854a.882.882,0,0,0,.2-.575,1.029,1.029,0,0,1,.957-1.147.994.994,0,0,1,1.054.982,1.024,1.024,0,0,1-1.075,1.031,1.255,1.255,0,0,0-.734.3q-1.369,1.306-2.675,2.677a1.239,1.239,0,0,0-.285.734,1.048,1.048,0,0,1-1.035,1.083,1.008,1.008,0,0,1-.974-1.069C451.639,184.815,452.095,184.44,452.95,184.489Z" transform="translate(-398.157 -155.223)" fill="#6c56a4" stroke="#6c56a4" stroke-miterlimit="10" stroke-width="2"></path>
          <path id="Path_122" data-name="Path 122" d="M317.259,480.29c-.019.578-.232,1-.71,1.041a1.6,1.6,0,0,1-1.077-.348.758.758,0,0,1,0-1.164c.5-.4.441-.875.445-1.379,0-.392-.013-.786,0-1.176a1.025,1.025,0,0,0-.379-.963.937.937,0,0,1,0-1.383,1.01,1.01,0,0,1,1.444.008.955.955,0,0,1-.021,1.385.982.982,0,0,0-.369.906c.019.413.006.826,0,1.239,0,.506-.082,1.02.46,1.364C317.19,479.909,317.213,480.178,317.259,480.29Z" transform="translate(-290.496 -387.992)" fill="#6c56a4" stroke="#6c56a4" stroke-miterlimit="10" stroke-width="2"></path>
          <path id="Path_123" data-name="Path 123" d="M384.608,315.758c.108.046.4.08.5.234.314.521.79.428,1.252.432.413,0,.826,0,1.239,0a1.057,1.057,0,0,0,1.02-.39.943.943,0,0,1,1.383.027,1.013,1.013,0,0,1,.044,1.353.912.912,0,0,1-1.37.116c-.367-.474-.8-.419-1.26-.426-.413,0-.826.011-1.239,0a1.085,1.085,0,0,0-1.024.39.852.852,0,0,1-1.185.118.928.928,0,0,1-.432-1.121A1,1,0,0,1,384.608,315.758Z" transform="translate(-344.388 -262.607)" fill="#6c56a4" stroke="#6c56a4" stroke-miterlimit="10" stroke-width="2"></path>
          <path id="Path_124" data-name="Path 124" d="M594.7,112.572a5.093,5.093,0,0,1-.833.908c-.394.251-.774.059-1.128-.226a1.644,1.644,0,0,0-.774-.341,11.623,11.623,0,0,0-1.3-.017,1.462,1.462,0,0,0-1.372.46.9.9,0,0,1-1.326-.105,1.033,1.033,0,0,1,0-1.36.927.927,0,0,1,1.332-.1c.392.5.866.449,1.368.447.392,0,.786-.013,1.178,0a1.178,1.178,0,0,0,.972-.36,1.241,1.241,0,0,1,1.056-.2C594.174,111.779,594.37,112.19,594.7,112.572Z" transform="translate(-505.568 -101.451)" fill="#6c56a4" stroke="#6c56a4" stroke-miterlimit="10" stroke-width="2"></path>
          <path id="Path_125" data-name="Path 125" d="M140.918,498.254a4.928,4.928,0,0,1-.822.875c-.394.245-.774.053-1.126-.234a1.646,1.646,0,0,0-.769-.339,10.654,10.654,0,0,0-1.3-.015c-.5,0-.974-.046-1.364.455a.911.911,0,0,1-1.328-.089,1.013,1.013,0,0,1,.017-1.4.913.913,0,0,1,1.33-.055c.354.476.78.441,1.246.436.352,0,.7,0,1.054,0,.462,0,.894.048,1.265-.419a1.171,1.171,0,0,1,1.054-.112C140.456,497.463,140.621,497.872,140.918,498.254Z" transform="translate(-147.442 -405.804)" fill="#6c56a4" stroke="#6c56a4" stroke-miterlimit="10" stroke-width="2"></path>
        </g>
      </g>
    </g>
    <circle id="Ellipse_1" data-name="Ellipse 1" cx="18.635" cy="18.635" r="18.635" transform="translate(222.55 87.754)" fill="#82959d"></circle>
    <g id="Group_5" data-name="Group 5" transform="translate(227.967 91.509)">
      <path id="Path_127" data-name="Path 127" d="M375.589,242.711h10.179a.839.839,0,0,0,.839-.837v-8.181a.84.84,0,0,0-.839-.839h-7.7v-.868a2.525,2.525,0,0,1,2.574-2.468,2.579,2.579,0,0,1,2.464,1.76c.059.188.122,1.566.306,1.636s.835.736,1.005.637l.2.057a.871.871,0,0,0,.51-.753c-.483-3.838-2.652-5.015-4.483-5.015a4.2,4.2,0,0,0-4.249,4.146v.868h-.8a.84.84,0,0,0-.839.839v8.181A.841.841,0,0,0,375.589,242.711Zm4.251-6.174a.839.839,0,1,1,1.678,0v2.489a.839.839,0,0,1-1.678,0Z" transform="translate(-367.461 -221.098)" fill="#fff"></path>
      <path id="Path_128" data-name="Path 128" d="M365.875,198.444a1.008,1.008,0,0,0-.3-.188l-.485-.19a32.063,32.063,0,0,0-23.408,0l-.112.044a2.191,2.191,0,0,0-1.4,2.053V218.32a2.033,2.033,0,0,0,.909,1.7l11.228,7.46a1.946,1.946,0,0,0,2.158,0l11.193-7.434a2.116,2.116,0,0,0,.946-1.764V199.384A.966.966,0,0,0,365.875,198.444Zm-23.768,1.665a.193.193,0,0,1,.12-.177,30.574,30.574,0,0,1,22.322,0l.12.046V218.27a.191.191,0,0,1-.084.158l-11.091,7.367a.188.188,0,0,1-.209,0l-11.091-7.367a.186.186,0,0,1-.084-.158V200.109Z" transform="translate(-340.17 -195.854)" fill="#fff"></path>
    </g>
  </g>
</svg>
